G04 #@! TF.GenerationSoftware,KiCad,Pcbnew,5.0.0*
G04 #@! TF.CreationDate,2018-09-22T16:12:04+03:00*
G04 #@! TF.ProjectId,stm32-hamster,73746D33322D68616D737465722E6B69,rev?*
G04 #@! TF.SameCoordinates,Original*
G04 #@! TF.FileFunction,Legend,Bot*
G04 #@! TF.FilePolarity,Positive*
%FSLAX46Y46*%
G04 Gerber Fmt 4.6, Leading zero omitted, Abs format (unit mm)*
G04 Created by KiCad (PCBNEW 5.0.0) date Sat Sep 22 16:12:04 2018*
%MOMM*%
%LPD*%
G01*
G04 APERTURE LIST*
%ADD10C,0.250000*%
%ADD11C,0.300000*%
%ADD12C,0.150000*%
%ADD13C,0.120000*%
G04 APERTURE END LIST*
D10*
X149026190Y-95718380D02*
X148692857Y-96718380D01*
X148359523Y-95718380D01*
X146692857Y-96623142D02*
X146740476Y-96670761D01*
X146883333Y-96718380D01*
X146978571Y-96718380D01*
X147121428Y-96670761D01*
X147216666Y-96575523D01*
X147264285Y-96480285D01*
X147311904Y-96289809D01*
X147311904Y-96146952D01*
X147264285Y-95956476D01*
X147216666Y-95861238D01*
X147121428Y-95766000D01*
X146978571Y-95718380D01*
X146883333Y-95718380D01*
X146740476Y-95766000D01*
X146692857Y-95813619D01*
X145502380Y-96718380D02*
X145502380Y-95718380D01*
X145264285Y-95718380D01*
X145121428Y-95766000D01*
X145026190Y-95861238D01*
X144978571Y-95956476D01*
X144930952Y-96146952D01*
X144930952Y-96289809D01*
X144978571Y-96480285D01*
X145026190Y-96575523D01*
X145121428Y-96670761D01*
X145264285Y-96718380D01*
X145502380Y-96718380D01*
X143216666Y-95766000D02*
X143311904Y-95718380D01*
X143454761Y-95718380D01*
X143597619Y-95766000D01*
X143692857Y-95861238D01*
X143740476Y-95956476D01*
X143788095Y-96146952D01*
X143788095Y-96289809D01*
X143740476Y-96480285D01*
X143692857Y-96575523D01*
X143597619Y-96670761D01*
X143454761Y-96718380D01*
X143359523Y-96718380D01*
X143216666Y-96670761D01*
X143169047Y-96623142D01*
X143169047Y-96289809D01*
X143359523Y-96289809D01*
D11*
X160099142Y-92904571D02*
X159170571Y-92904571D01*
X159670571Y-93476000D01*
X159456285Y-93476000D01*
X159313428Y-93547428D01*
X159242000Y-93618857D01*
X159170571Y-93761714D01*
X159170571Y-94118857D01*
X159242000Y-94261714D01*
X159313428Y-94333142D01*
X159456285Y-94404571D01*
X159884857Y-94404571D01*
X160027714Y-94333142D01*
X160099142Y-94261714D01*
X158742000Y-92904571D02*
X158242000Y-94404571D01*
X157742000Y-92904571D01*
X157384857Y-92904571D02*
X156456285Y-92904571D01*
X156956285Y-93476000D01*
X156742000Y-93476000D01*
X156599142Y-93547428D01*
X156527714Y-93618857D01*
X156456285Y-93761714D01*
X156456285Y-94118857D01*
X156527714Y-94261714D01*
X156599142Y-94333142D01*
X156742000Y-94404571D01*
X157170571Y-94404571D01*
X157313428Y-94333142D01*
X157384857Y-94261714D01*
X158019714Y-97984571D02*
X158734000Y-97984571D01*
X158805428Y-98698857D01*
X158734000Y-98627428D01*
X158591142Y-98556000D01*
X158234000Y-98556000D01*
X158091142Y-98627428D01*
X158019714Y-98698857D01*
X157948285Y-98841714D01*
X157948285Y-99198857D01*
X158019714Y-99341714D01*
X158091142Y-99413142D01*
X158234000Y-99484571D01*
X158591142Y-99484571D01*
X158734000Y-99413142D01*
X158805428Y-99341714D01*
X157519714Y-97984571D02*
X157019714Y-99484571D01*
X156519714Y-97984571D01*
D12*
G04 #@! TO.C,U6*
X122717000Y-97833000D02*
X122667000Y-97833000D01*
X122717000Y-93683000D02*
X122572000Y-93683000D01*
X117567000Y-93683000D02*
X117712000Y-93683000D01*
X117567000Y-97833000D02*
X117712000Y-97833000D01*
X122717000Y-97833000D02*
X122717000Y-93683000D01*
X117567000Y-97833000D02*
X117567000Y-93683000D01*
X122667000Y-97833000D02*
X122667000Y-99233000D01*
D13*
G04 #@! TO.C,JP2*
X153102000Y-92396000D02*
X155762000Y-92396000D01*
X153102000Y-97536000D02*
X153102000Y-92396000D01*
X155762000Y-97536000D02*
X155762000Y-92396000D01*
X153102000Y-97536000D02*
X155762000Y-97536000D01*
X153102000Y-98806000D02*
X153102000Y-100136000D01*
X153102000Y-100136000D02*
X154432000Y-100136000D01*
G04 #@! TO.C,Q1*
X173480000Y-91892000D02*
X173480000Y-92822000D01*
X173480000Y-95052000D02*
X173480000Y-94122000D01*
X173480000Y-95052000D02*
X171320000Y-95052000D01*
X173480000Y-91892000D02*
X172020000Y-91892000D01*
G04 #@! TO.C,C2*
X131768436Y-97176000D02*
X132972564Y-97176000D01*
X131768436Y-95356000D02*
X132972564Y-95356000D01*
G04 #@! TO.C,C3*
X179938000Y-105758064D02*
X179938000Y-104553936D01*
X181758000Y-105758064D02*
X181758000Y-104553936D01*
G04 #@! TO.C,C4*
X179229936Y-83968000D02*
X180434064Y-83968000D01*
X179229936Y-82148000D02*
X180434064Y-82148000D01*
G04 #@! TO.C,D1*
X140640000Y-103513000D02*
X144700000Y-103513000D01*
X144700000Y-103513000D02*
X144700000Y-105783000D01*
X144700000Y-105783000D02*
X140640000Y-105783000D01*
G04 #@! TO.C,J1*
X149666000Y-92396000D02*
X149666000Y-95056000D01*
X141986000Y-92396000D02*
X149666000Y-92396000D01*
X141986000Y-95056000D02*
X149666000Y-95056000D01*
X141986000Y-92396000D02*
X141986000Y-95056000D01*
X140716000Y-92396000D02*
X139386000Y-92396000D01*
X139386000Y-92396000D02*
X139386000Y-93726000D01*
G04 #@! TO.C,JP1*
X144586000Y-97984000D02*
X144586000Y-100644000D01*
X141986000Y-97984000D02*
X144586000Y-97984000D01*
X141986000Y-100644000D02*
X144586000Y-100644000D01*
X141986000Y-97984000D02*
X141986000Y-100644000D01*
X140716000Y-97984000D02*
X139386000Y-97984000D01*
X139386000Y-97984000D02*
X139386000Y-99314000D01*
G04 #@! TO.C,R1*
X132899564Y-100182000D02*
X131695436Y-100182000D01*
X132899564Y-102002000D02*
X131695436Y-102002000D01*
G04 #@! TO.C,R2*
X148484000Y-103980064D02*
X148484000Y-102775936D01*
X146664000Y-103980064D02*
X146664000Y-102775936D01*
G04 #@! TO.C,R3*
X131731936Y-90784000D02*
X132936064Y-90784000D01*
X131731936Y-92604000D02*
X132936064Y-92604000D01*
G04 #@! TO.C,R4*
X167988064Y-102722000D02*
X166783936Y-102722000D01*
X167988064Y-104542000D02*
X166783936Y-104542000D01*
G04 #@! TO.C,R5*
X179229936Y-89210000D02*
X180434064Y-89210000D01*
X179229936Y-87390000D02*
X180434064Y-87390000D01*
G04 #@! TO.C,R6*
X174239564Y-101010000D02*
X173035436Y-101010000D01*
X174239564Y-99190000D02*
X173035436Y-99190000D01*
G04 #@! TO.C,R7*
X165550436Y-89260000D02*
X166754564Y-89260000D01*
X165550436Y-87440000D02*
X166754564Y-87440000D01*
G04 #@! TO.C,R8*
X166783936Y-107790000D02*
X167988064Y-107790000D01*
X166783936Y-109610000D02*
X167988064Y-109610000D01*
G04 #@! TO.C,R9*
X165767936Y-82402000D02*
X166972064Y-82402000D01*
X165767936Y-84222000D02*
X166972064Y-84222000D01*
G04 #@! TO.C,R10*
X113443936Y-108564000D02*
X114648064Y-108564000D01*
X113443936Y-110384000D02*
X114648064Y-110384000D01*
G04 #@! TO.C,R11*
X114648064Y-104500000D02*
X113443936Y-104500000D01*
X114648064Y-106320000D02*
X113443936Y-106320000D01*
G04 #@! TO.C,R12*
X113951936Y-82148000D02*
X115156064Y-82148000D01*
X113951936Y-83968000D02*
X115156064Y-83968000D01*
G04 #@! TO.C,R13*
X115156064Y-86212000D02*
X113951936Y-86212000D01*
X115156064Y-88032000D02*
X113951936Y-88032000D01*
G04 #@! TO.C,SW1*
X126250000Y-109180000D02*
X125750000Y-109180000D01*
X125750000Y-109180000D02*
X125750000Y-100180000D01*
X125750000Y-100180000D02*
X126250000Y-100180000D01*
X127750000Y-100180000D02*
X128250000Y-100180000D01*
X128250000Y-100180000D02*
X128250000Y-109180000D01*
X128250000Y-109180000D02*
X127750000Y-109180000D01*
G04 #@! TO.C,U1*
X147248000Y-89430000D02*
X147248000Y-85830000D01*
X147259522Y-89468478D02*
G75*
G03X151698000Y-87630000I1838478J1838478D01*
G01*
X147259522Y-85791522D02*
G75*
G02X151698000Y-87630000I1838478J-1838478D01*
G01*
D12*
G04 #@! TO.C,U2*
X176825000Y-108325000D02*
X176825000Y-109725000D01*
X171725000Y-108325000D02*
X171725000Y-104175000D01*
X176875000Y-108325000D02*
X176875000Y-104175000D01*
X171725000Y-108325000D02*
X171870000Y-108325000D01*
X171725000Y-104175000D02*
X171870000Y-104175000D01*
X176875000Y-104175000D02*
X176730000Y-104175000D01*
X176875000Y-108325000D02*
X176825000Y-108325000D01*
G04 #@! TO.C,U3*
X170653000Y-83777000D02*
X170703000Y-83777000D01*
X170653000Y-87927000D02*
X170798000Y-87927000D01*
X175803000Y-87927000D02*
X175658000Y-87927000D01*
X175803000Y-83777000D02*
X175658000Y-83777000D01*
X170653000Y-83777000D02*
X170653000Y-87927000D01*
X175803000Y-83777000D02*
X175803000Y-87927000D01*
X170703000Y-83777000D02*
X170703000Y-82377000D01*
G04 #@! TO.C,U4*
X130200000Y-82150000D02*
X134650000Y-82150000D01*
X128675000Y-89050000D02*
X134650000Y-89050000D01*
D13*
G04 #@! TO.C,J3*
X109534000Y-110804000D02*
X106874000Y-110804000D01*
X109534000Y-108204000D02*
X109534000Y-110804000D01*
X106874000Y-108204000D02*
X106874000Y-110804000D01*
X109534000Y-108204000D02*
X106874000Y-108204000D01*
X109534000Y-106934000D02*
X109534000Y-105604000D01*
X109534000Y-105604000D02*
X108204000Y-105604000D01*
G04 #@! TO.C,J4*
X106874000Y-86928000D02*
X108204000Y-86928000D01*
X106874000Y-85598000D02*
X106874000Y-86928000D01*
X106874000Y-84328000D02*
X109534000Y-84328000D01*
X109534000Y-84328000D02*
X109534000Y-81728000D01*
X106874000Y-84328000D02*
X106874000Y-81728000D01*
X106874000Y-81728000D02*
X109534000Y-81728000D01*
G04 #@! TO.C,U6*
D12*
X116585904Y-95972380D02*
X116585904Y-96781904D01*
X116538285Y-96877142D01*
X116490666Y-96924761D01*
X116395428Y-96972380D01*
X116204952Y-96972380D01*
X116109714Y-96924761D01*
X116062095Y-96877142D01*
X116014476Y-96781904D01*
X116014476Y-95972380D01*
X115109714Y-95972380D02*
X115300190Y-95972380D01*
X115395428Y-96020000D01*
X115443047Y-96067619D01*
X115538285Y-96210476D01*
X115585904Y-96400952D01*
X115585904Y-96781904D01*
X115538285Y-96877142D01*
X115490666Y-96924761D01*
X115395428Y-96972380D01*
X115204952Y-96972380D01*
X115109714Y-96924761D01*
X115062095Y-96877142D01*
X115014476Y-96781904D01*
X115014476Y-96543809D01*
X115062095Y-96448571D01*
X115109714Y-96400952D01*
X115204952Y-96353333D01*
X115395428Y-96353333D01*
X115490666Y-96400952D01*
X115538285Y-96448571D01*
X115585904Y-96543809D01*
G04 #@! TO.C,JP2*
X153487333Y-90638380D02*
X153487333Y-91352666D01*
X153534952Y-91495523D01*
X153630190Y-91590761D01*
X153773047Y-91638380D01*
X153868285Y-91638380D01*
X153011142Y-91638380D02*
X153011142Y-90638380D01*
X152630190Y-90638380D01*
X152534952Y-90686000D01*
X152487333Y-90733619D01*
X152439714Y-90828857D01*
X152439714Y-90971714D01*
X152487333Y-91066952D01*
X152534952Y-91114571D01*
X152630190Y-91162190D01*
X153011142Y-91162190D01*
X152058761Y-90733619D02*
X152011142Y-90686000D01*
X151915904Y-90638380D01*
X151677809Y-90638380D01*
X151582571Y-90686000D01*
X151534952Y-90733619D01*
X151487333Y-90828857D01*
X151487333Y-90924095D01*
X151534952Y-91066952D01*
X152106380Y-91638380D01*
X151487333Y-91638380D01*
G04 #@! TO.C,Q1*
X172815238Y-96519619D02*
X172910476Y-96472000D01*
X173005714Y-96376761D01*
X173148571Y-96233904D01*
X173243809Y-96186285D01*
X173339047Y-96186285D01*
X173291428Y-96424380D02*
X173386666Y-96376761D01*
X173481904Y-96281523D01*
X173529523Y-96091047D01*
X173529523Y-95757714D01*
X173481904Y-95567238D01*
X173386666Y-95472000D01*
X173291428Y-95424380D01*
X173100952Y-95424380D01*
X173005714Y-95472000D01*
X172910476Y-95567238D01*
X172862857Y-95757714D01*
X172862857Y-96091047D01*
X172910476Y-96281523D01*
X173005714Y-96376761D01*
X173100952Y-96424380D01*
X173291428Y-96424380D01*
X171910476Y-96424380D02*
X172481904Y-96424380D01*
X172196190Y-96424380D02*
X172196190Y-95424380D01*
X172291428Y-95567238D01*
X172386666Y-95662476D01*
X172481904Y-95710095D01*
G04 #@! TO.C,C2*
X132500666Y-99163142D02*
X132548285Y-99210761D01*
X132691142Y-99258380D01*
X132786380Y-99258380D01*
X132929238Y-99210761D01*
X133024476Y-99115523D01*
X133072095Y-99020285D01*
X133119714Y-98829809D01*
X133119714Y-98686952D01*
X133072095Y-98496476D01*
X133024476Y-98401238D01*
X132929238Y-98306000D01*
X132786380Y-98258380D01*
X132691142Y-98258380D01*
X132548285Y-98306000D01*
X132500666Y-98353619D01*
X132119714Y-98353619D02*
X132072095Y-98306000D01*
X131976857Y-98258380D01*
X131738761Y-98258380D01*
X131643523Y-98306000D01*
X131595904Y-98353619D01*
X131548285Y-98448857D01*
X131548285Y-98544095D01*
X131595904Y-98686952D01*
X132167333Y-99258380D01*
X131548285Y-99258380D01*
G04 #@! TO.C,C3*
X183491142Y-104735333D02*
X183538761Y-104687714D01*
X183586380Y-104544857D01*
X183586380Y-104449619D01*
X183538761Y-104306761D01*
X183443523Y-104211523D01*
X183348285Y-104163904D01*
X183157809Y-104116285D01*
X183014952Y-104116285D01*
X182824476Y-104163904D01*
X182729238Y-104211523D01*
X182634000Y-104306761D01*
X182586380Y-104449619D01*
X182586380Y-104544857D01*
X182634000Y-104687714D01*
X182681619Y-104735333D01*
X182586380Y-105068666D02*
X182586380Y-105687714D01*
X182967333Y-105354380D01*
X182967333Y-105497238D01*
X183014952Y-105592476D01*
X183062571Y-105640095D01*
X183157809Y-105687714D01*
X183395904Y-105687714D01*
X183491142Y-105640095D01*
X183538761Y-105592476D01*
X183586380Y-105497238D01*
X183586380Y-105211523D01*
X183538761Y-105116285D01*
X183491142Y-105068666D01*
G04 #@! TO.C,C4*
X179744666Y-81383142D02*
X179792285Y-81430761D01*
X179935142Y-81478380D01*
X180030380Y-81478380D01*
X180173238Y-81430761D01*
X180268476Y-81335523D01*
X180316095Y-81240285D01*
X180363714Y-81049809D01*
X180363714Y-80906952D01*
X180316095Y-80716476D01*
X180268476Y-80621238D01*
X180173238Y-80526000D01*
X180030380Y-80478380D01*
X179935142Y-80478380D01*
X179792285Y-80526000D01*
X179744666Y-80573619D01*
X178887523Y-80811714D02*
X178887523Y-81478380D01*
X179125619Y-80430761D02*
X179363714Y-81145047D01*
X178744666Y-81145047D01*
G04 #@! TO.C,D1*
X142978095Y-107132380D02*
X142978095Y-106132380D01*
X142740000Y-106132380D01*
X142597142Y-106180000D01*
X142501904Y-106275238D01*
X142454285Y-106370476D01*
X142406666Y-106560952D01*
X142406666Y-106703809D01*
X142454285Y-106894285D01*
X142501904Y-106989523D01*
X142597142Y-107084761D01*
X142740000Y-107132380D01*
X142978095Y-107132380D01*
X141454285Y-107132380D02*
X142025714Y-107132380D01*
X141740000Y-107132380D02*
X141740000Y-106132380D01*
X141835238Y-106275238D01*
X141930476Y-106370476D01*
X142025714Y-106418095D01*
G04 #@! TO.C,J1*
X140795333Y-90130380D02*
X140795333Y-90844666D01*
X140842952Y-90987523D01*
X140938190Y-91082761D01*
X141081047Y-91130380D01*
X141176285Y-91130380D01*
X139795333Y-91130380D02*
X140366761Y-91130380D01*
X140081047Y-91130380D02*
X140081047Y-90130380D01*
X140176285Y-90273238D01*
X140271523Y-90368476D01*
X140366761Y-90416095D01*
G04 #@! TO.C,JP1*
X137374380Y-98480666D02*
X138088666Y-98480666D01*
X138231523Y-98433047D01*
X138326761Y-98337809D01*
X138374380Y-98194952D01*
X138374380Y-98099714D01*
X138374380Y-98956857D02*
X137374380Y-98956857D01*
X137374380Y-99337809D01*
X137422000Y-99433047D01*
X137469619Y-99480666D01*
X137564857Y-99528285D01*
X137707714Y-99528285D01*
X137802952Y-99480666D01*
X137850571Y-99433047D01*
X137898190Y-99337809D01*
X137898190Y-98956857D01*
X138374380Y-100480666D02*
X138374380Y-99909238D01*
X138374380Y-100194952D02*
X137374380Y-100194952D01*
X137517238Y-100099714D01*
X137612476Y-100004476D01*
X137660095Y-99909238D01*
G04 #@! TO.C,R1*
X132754666Y-103830380D02*
X133088000Y-103354190D01*
X133326095Y-103830380D02*
X133326095Y-102830380D01*
X132945142Y-102830380D01*
X132849904Y-102878000D01*
X132802285Y-102925619D01*
X132754666Y-103020857D01*
X132754666Y-103163714D01*
X132802285Y-103258952D01*
X132849904Y-103306571D01*
X132945142Y-103354190D01*
X133326095Y-103354190D01*
X131802285Y-103830380D02*
X132373714Y-103830380D01*
X132088000Y-103830380D02*
X132088000Y-102830380D01*
X132183238Y-102973238D01*
X132278476Y-103068476D01*
X132373714Y-103116095D01*
G04 #@! TO.C,R2*
X150058380Y-103211333D02*
X149582190Y-102878000D01*
X150058380Y-102639904D02*
X149058380Y-102639904D01*
X149058380Y-103020857D01*
X149106000Y-103116095D01*
X149153619Y-103163714D01*
X149248857Y-103211333D01*
X149391714Y-103211333D01*
X149486952Y-103163714D01*
X149534571Y-103116095D01*
X149582190Y-103020857D01*
X149582190Y-102639904D01*
X149153619Y-103592285D02*
X149106000Y-103639904D01*
X149058380Y-103735142D01*
X149058380Y-103973238D01*
X149106000Y-104068476D01*
X149153619Y-104116095D01*
X149248857Y-104163714D01*
X149344095Y-104163714D01*
X149486952Y-104116095D01*
X150058380Y-103544666D01*
X150058380Y-104163714D01*
G04 #@! TO.C,R3*
X128436666Y-92400380D02*
X128770000Y-91924190D01*
X129008095Y-92400380D02*
X129008095Y-91400380D01*
X128627142Y-91400380D01*
X128531904Y-91448000D01*
X128484285Y-91495619D01*
X128436666Y-91590857D01*
X128436666Y-91733714D01*
X128484285Y-91828952D01*
X128531904Y-91876571D01*
X128627142Y-91924190D01*
X129008095Y-91924190D01*
X128103333Y-91400380D02*
X127484285Y-91400380D01*
X127817619Y-91781333D01*
X127674761Y-91781333D01*
X127579523Y-91828952D01*
X127531904Y-91876571D01*
X127484285Y-91971809D01*
X127484285Y-92209904D01*
X127531904Y-92305142D01*
X127579523Y-92352761D01*
X127674761Y-92400380D01*
X127960476Y-92400380D01*
X128055714Y-92352761D01*
X128103333Y-92305142D01*
G04 #@! TO.C,R4*
X167552666Y-102264380D02*
X167886000Y-101788190D01*
X168124095Y-102264380D02*
X168124095Y-101264380D01*
X167743142Y-101264380D01*
X167647904Y-101312000D01*
X167600285Y-101359619D01*
X167552666Y-101454857D01*
X167552666Y-101597714D01*
X167600285Y-101692952D01*
X167647904Y-101740571D01*
X167743142Y-101788190D01*
X168124095Y-101788190D01*
X166695523Y-101597714D02*
X166695523Y-102264380D01*
X166933619Y-101216761D02*
X167171714Y-101931047D01*
X166552666Y-101931047D01*
G04 #@! TO.C,R5*
X179998666Y-86558380D02*
X180332000Y-86082190D01*
X180570095Y-86558380D02*
X180570095Y-85558380D01*
X180189142Y-85558380D01*
X180093904Y-85606000D01*
X180046285Y-85653619D01*
X179998666Y-85748857D01*
X179998666Y-85891714D01*
X180046285Y-85986952D01*
X180093904Y-86034571D01*
X180189142Y-86082190D01*
X180570095Y-86082190D01*
X179093904Y-85558380D02*
X179570095Y-85558380D01*
X179617714Y-86034571D01*
X179570095Y-85986952D01*
X179474857Y-85939333D01*
X179236761Y-85939333D01*
X179141523Y-85986952D01*
X179093904Y-86034571D01*
X179046285Y-86129809D01*
X179046285Y-86367904D01*
X179093904Y-86463142D01*
X179141523Y-86510761D01*
X179236761Y-86558380D01*
X179474857Y-86558380D01*
X179570095Y-86510761D01*
X179617714Y-86463142D01*
G04 #@! TO.C,R6*
X173804166Y-98732380D02*
X174137500Y-98256190D01*
X174375595Y-98732380D02*
X174375595Y-97732380D01*
X173994642Y-97732380D01*
X173899404Y-97780000D01*
X173851785Y-97827619D01*
X173804166Y-97922857D01*
X173804166Y-98065714D01*
X173851785Y-98160952D01*
X173899404Y-98208571D01*
X173994642Y-98256190D01*
X174375595Y-98256190D01*
X172947023Y-97732380D02*
X173137500Y-97732380D01*
X173232738Y-97780000D01*
X173280357Y-97827619D01*
X173375595Y-97970476D01*
X173423214Y-98160952D01*
X173423214Y-98541904D01*
X173375595Y-98637142D01*
X173327976Y-98684761D01*
X173232738Y-98732380D01*
X173042261Y-98732380D01*
X172947023Y-98684761D01*
X172899404Y-98637142D01*
X172851785Y-98541904D01*
X172851785Y-98303809D01*
X172899404Y-98208571D01*
X172947023Y-98160952D01*
X173042261Y-98113333D01*
X173232738Y-98113333D01*
X173327976Y-98160952D01*
X173375595Y-98208571D01*
X173423214Y-98303809D01*
G04 #@! TO.C,R7*
X166536666Y-91130380D02*
X166870000Y-90654190D01*
X167108095Y-91130380D02*
X167108095Y-90130380D01*
X166727142Y-90130380D01*
X166631904Y-90178000D01*
X166584285Y-90225619D01*
X166536666Y-90320857D01*
X166536666Y-90463714D01*
X166584285Y-90558952D01*
X166631904Y-90606571D01*
X166727142Y-90654190D01*
X167108095Y-90654190D01*
X166203333Y-90130380D02*
X165536666Y-90130380D01*
X165965238Y-91130380D01*
G04 #@! TO.C,R8*
X167806666Y-111450380D02*
X168140000Y-110974190D01*
X168378095Y-111450380D02*
X168378095Y-110450380D01*
X167997142Y-110450380D01*
X167901904Y-110498000D01*
X167854285Y-110545619D01*
X167806666Y-110640857D01*
X167806666Y-110783714D01*
X167854285Y-110878952D01*
X167901904Y-110926571D01*
X167997142Y-110974190D01*
X168378095Y-110974190D01*
X167235238Y-110878952D02*
X167330476Y-110831333D01*
X167378095Y-110783714D01*
X167425714Y-110688476D01*
X167425714Y-110640857D01*
X167378095Y-110545619D01*
X167330476Y-110498000D01*
X167235238Y-110450380D01*
X167044761Y-110450380D01*
X166949523Y-110498000D01*
X166901904Y-110545619D01*
X166854285Y-110640857D01*
X166854285Y-110688476D01*
X166901904Y-110783714D01*
X166949523Y-110831333D01*
X167044761Y-110878952D01*
X167235238Y-110878952D01*
X167330476Y-110926571D01*
X167378095Y-110974190D01*
X167425714Y-111069428D01*
X167425714Y-111259904D01*
X167378095Y-111355142D01*
X167330476Y-111402761D01*
X167235238Y-111450380D01*
X167044761Y-111450380D01*
X166949523Y-111402761D01*
X166901904Y-111355142D01*
X166854285Y-111259904D01*
X166854285Y-111069428D01*
X166901904Y-110974190D01*
X166949523Y-110926571D01*
X167044761Y-110878952D01*
G04 #@! TO.C,R9*
X166536666Y-86050380D02*
X166870000Y-85574190D01*
X167108095Y-86050380D02*
X167108095Y-85050380D01*
X166727142Y-85050380D01*
X166631904Y-85098000D01*
X166584285Y-85145619D01*
X166536666Y-85240857D01*
X166536666Y-85383714D01*
X166584285Y-85478952D01*
X166631904Y-85526571D01*
X166727142Y-85574190D01*
X167108095Y-85574190D01*
X166060476Y-86050380D02*
X165870000Y-86050380D01*
X165774761Y-86002761D01*
X165727142Y-85955142D01*
X165631904Y-85812285D01*
X165584285Y-85621809D01*
X165584285Y-85240857D01*
X165631904Y-85145619D01*
X165679523Y-85098000D01*
X165774761Y-85050380D01*
X165965238Y-85050380D01*
X166060476Y-85098000D01*
X166108095Y-85145619D01*
X166155714Y-85240857D01*
X166155714Y-85478952D01*
X166108095Y-85574190D01*
X166060476Y-85621809D01*
X165965238Y-85669428D01*
X165774761Y-85669428D01*
X165679523Y-85621809D01*
X165631904Y-85574190D01*
X165584285Y-85478952D01*
G04 #@! TO.C,R10*
X114942857Y-112212380D02*
X115276190Y-111736190D01*
X115514285Y-112212380D02*
X115514285Y-111212380D01*
X115133333Y-111212380D01*
X115038095Y-111260000D01*
X114990476Y-111307619D01*
X114942857Y-111402857D01*
X114942857Y-111545714D01*
X114990476Y-111640952D01*
X115038095Y-111688571D01*
X115133333Y-111736190D01*
X115514285Y-111736190D01*
X113990476Y-112212380D02*
X114561904Y-112212380D01*
X114276190Y-112212380D02*
X114276190Y-111212380D01*
X114371428Y-111355238D01*
X114466666Y-111450476D01*
X114561904Y-111498095D01*
X113371428Y-111212380D02*
X113276190Y-111212380D01*
X113180952Y-111260000D01*
X113133333Y-111307619D01*
X113085714Y-111402857D01*
X113038095Y-111593333D01*
X113038095Y-111831428D01*
X113085714Y-112021904D01*
X113133333Y-112117142D01*
X113180952Y-112164761D01*
X113276190Y-112212380D01*
X113371428Y-112212380D01*
X113466666Y-112164761D01*
X113514285Y-112117142D01*
X113561904Y-112021904D01*
X113609523Y-111831428D01*
X113609523Y-111593333D01*
X113561904Y-111402857D01*
X113514285Y-111307619D01*
X113466666Y-111260000D01*
X113371428Y-111212380D01*
G04 #@! TO.C,R11*
X114688857Y-103322380D02*
X115022190Y-102846190D01*
X115260285Y-103322380D02*
X115260285Y-102322380D01*
X114879333Y-102322380D01*
X114784095Y-102370000D01*
X114736476Y-102417619D01*
X114688857Y-102512857D01*
X114688857Y-102655714D01*
X114736476Y-102750952D01*
X114784095Y-102798571D01*
X114879333Y-102846190D01*
X115260285Y-102846190D01*
X113736476Y-103322380D02*
X114307904Y-103322380D01*
X114022190Y-103322380D02*
X114022190Y-102322380D01*
X114117428Y-102465238D01*
X114212666Y-102560476D01*
X114307904Y-102608095D01*
X112784095Y-103322380D02*
X113355523Y-103322380D01*
X113069809Y-103322380D02*
X113069809Y-102322380D01*
X113165047Y-102465238D01*
X113260285Y-102560476D01*
X113355523Y-102608095D01*
G04 #@! TO.C,R12*
X114942857Y-80970380D02*
X115276190Y-80494190D01*
X115514285Y-80970380D02*
X115514285Y-79970380D01*
X115133333Y-79970380D01*
X115038095Y-80018000D01*
X114990476Y-80065619D01*
X114942857Y-80160857D01*
X114942857Y-80303714D01*
X114990476Y-80398952D01*
X115038095Y-80446571D01*
X115133333Y-80494190D01*
X115514285Y-80494190D01*
X113990476Y-80970380D02*
X114561904Y-80970380D01*
X114276190Y-80970380D02*
X114276190Y-79970380D01*
X114371428Y-80113238D01*
X114466666Y-80208476D01*
X114561904Y-80256095D01*
X113609523Y-80065619D02*
X113561904Y-80018000D01*
X113466666Y-79970380D01*
X113228571Y-79970380D01*
X113133333Y-80018000D01*
X113085714Y-80065619D01*
X113038095Y-80160857D01*
X113038095Y-80256095D01*
X113085714Y-80398952D01*
X113657142Y-80970380D01*
X113038095Y-80970380D01*
G04 #@! TO.C,R13*
X115450857Y-90114380D02*
X115784190Y-89638190D01*
X116022285Y-90114380D02*
X116022285Y-89114380D01*
X115641333Y-89114380D01*
X115546095Y-89162000D01*
X115498476Y-89209619D01*
X115450857Y-89304857D01*
X115450857Y-89447714D01*
X115498476Y-89542952D01*
X115546095Y-89590571D01*
X115641333Y-89638190D01*
X116022285Y-89638190D01*
X114498476Y-90114380D02*
X115069904Y-90114380D01*
X114784190Y-90114380D02*
X114784190Y-89114380D01*
X114879428Y-89257238D01*
X114974666Y-89352476D01*
X115069904Y-89400095D01*
X114165142Y-89114380D02*
X113546095Y-89114380D01*
X113879428Y-89495333D01*
X113736571Y-89495333D01*
X113641333Y-89542952D01*
X113593714Y-89590571D01*
X113546095Y-89685809D01*
X113546095Y-89923904D01*
X113593714Y-90019142D01*
X113641333Y-90066761D01*
X113736571Y-90114380D01*
X114022285Y-90114380D01*
X114117523Y-90066761D01*
X114165142Y-90019142D01*
G04 #@! TO.C,SW1*
X124356761Y-103822666D02*
X124404380Y-103965523D01*
X124404380Y-104203619D01*
X124356761Y-104298857D01*
X124309142Y-104346476D01*
X124213904Y-104394095D01*
X124118666Y-104394095D01*
X124023428Y-104346476D01*
X123975809Y-104298857D01*
X123928190Y-104203619D01*
X123880571Y-104013142D01*
X123832952Y-103917904D01*
X123785333Y-103870285D01*
X123690095Y-103822666D01*
X123594857Y-103822666D01*
X123499619Y-103870285D01*
X123452000Y-103917904D01*
X123404380Y-104013142D01*
X123404380Y-104251238D01*
X123452000Y-104394095D01*
X123404380Y-104727428D02*
X124404380Y-104965523D01*
X123690095Y-105156000D01*
X124404380Y-105346476D01*
X123404380Y-105584571D01*
X124404380Y-106489333D02*
X124404380Y-105917904D01*
X124404380Y-106203619D02*
X123404380Y-106203619D01*
X123547238Y-106108380D01*
X123642476Y-106013142D01*
X123690095Y-105917904D01*
G04 #@! TO.C,U1*
X146303904Y-87082380D02*
X146303904Y-87891904D01*
X146256285Y-87987142D01*
X146208666Y-88034761D01*
X146113428Y-88082380D01*
X145922952Y-88082380D01*
X145827714Y-88034761D01*
X145780095Y-87987142D01*
X145732476Y-87891904D01*
X145732476Y-87082380D01*
X144732476Y-88082380D02*
X145303904Y-88082380D01*
X145018190Y-88082380D02*
X145018190Y-87082380D01*
X145113428Y-87225238D01*
X145208666Y-87320476D01*
X145303904Y-87368095D01*
G04 #@! TO.C,U2*
X177506380Y-105488095D02*
X178315904Y-105488095D01*
X178411142Y-105535714D01*
X178458761Y-105583333D01*
X178506380Y-105678571D01*
X178506380Y-105869047D01*
X178458761Y-105964285D01*
X178411142Y-106011904D01*
X178315904Y-106059523D01*
X177506380Y-106059523D01*
X177601619Y-106488095D02*
X177554000Y-106535714D01*
X177506380Y-106630952D01*
X177506380Y-106869047D01*
X177554000Y-106964285D01*
X177601619Y-107011904D01*
X177696857Y-107059523D01*
X177792095Y-107059523D01*
X177934952Y-107011904D01*
X178506380Y-106440476D01*
X178506380Y-107059523D01*
G04 #@! TO.C,U3*
X169180380Y-85344095D02*
X169989904Y-85344095D01*
X170085142Y-85391714D01*
X170132761Y-85439333D01*
X170180380Y-85534571D01*
X170180380Y-85725047D01*
X170132761Y-85820285D01*
X170085142Y-85867904D01*
X169989904Y-85915523D01*
X169180380Y-85915523D01*
X169180380Y-86296476D02*
X169180380Y-86915523D01*
X169561333Y-86582190D01*
X169561333Y-86725047D01*
X169608952Y-86820285D01*
X169656571Y-86867904D01*
X169751809Y-86915523D01*
X169989904Y-86915523D01*
X170085142Y-86867904D01*
X170132761Y-86820285D01*
X170180380Y-86725047D01*
X170180380Y-86439333D01*
X170132761Y-86344095D01*
X170085142Y-86296476D01*
G04 #@! TO.C,U4*
X132587904Y-80478380D02*
X132587904Y-81287904D01*
X132540285Y-81383142D01*
X132492666Y-81430761D01*
X132397428Y-81478380D01*
X132206952Y-81478380D01*
X132111714Y-81430761D01*
X132064095Y-81383142D01*
X132016476Y-81287904D01*
X132016476Y-80478380D01*
X131111714Y-80811714D02*
X131111714Y-81478380D01*
X131349809Y-80430761D02*
X131587904Y-81145047D01*
X130968857Y-81145047D01*
G04 #@! TO.C,J3*
X108283333Y-103338380D02*
X108283333Y-104052666D01*
X108330952Y-104195523D01*
X108426190Y-104290761D01*
X108569047Y-104338380D01*
X108664285Y-104338380D01*
X107902380Y-103338380D02*
X107283333Y-103338380D01*
X107616666Y-103719333D01*
X107473809Y-103719333D01*
X107378571Y-103766952D01*
X107330952Y-103814571D01*
X107283333Y-103909809D01*
X107283333Y-104147904D01*
X107330952Y-104243142D01*
X107378571Y-104290761D01*
X107473809Y-104338380D01*
X107759523Y-104338380D01*
X107854761Y-104290761D01*
X107902380Y-104243142D01*
G04 #@! TO.C,J4*
X108537333Y-88098380D02*
X108537333Y-88812666D01*
X108584952Y-88955523D01*
X108680190Y-89050761D01*
X108823047Y-89098380D01*
X108918285Y-89098380D01*
X107632571Y-88431714D02*
X107632571Y-89098380D01*
X107870666Y-88050761D02*
X108108761Y-88765047D01*
X107489714Y-88765047D01*
G04 #@! TD*
M02*
