M48
INCH,TZ
T1C0.0118
T2C0.0295
T3C0.0300
T4C0.0315
T5C0.0394
T6C0.0433
T7C0.0472
T8C0.0512
%
G90
G05
T1
X43600Y-36600
X44300Y-37600
X44300Y-38600
X44314Y-40714
X44500Y-35100
X48900Y-36900
X51791Y-31978
X52000Y-32600
X52000Y-33400
X52100Y-34300
X52100Y-34800
X52200Y-38900
X53400Y-36100
X54100Y-36900
X54500Y-34900
X54774Y-31969
X55000Y-33500
X55600Y-36000
X58100Y-44400
X65700Y-41800
X66100Y-33800
X67200Y-41800
X68000Y-34000
X68700Y-41900
X70300Y-31200
X70400Y-41900
X71200Y-39700
T2
X58700Y-34000
X58700Y-34500
X58700Y-35000
T3
X55937Y-31280
X55937Y-32280
X56937Y-31280
X56937Y-32280
X57937Y-31280
X57937Y-32280
X58937Y-31280
X58937Y-32280
T4
X62600Y-34500
X62600Y-35484
X65300Y-37100
X65300Y-38596
X63000Y-40216
X63000Y-41200
T5
X42598Y-36563
X42598Y-37563
X42598Y-38563
X42598Y-39563
X60800Y-36900
X60800Y-37900
X60800Y-38900
X42600Y-32700
X42600Y-33700
X42600Y-42100
X42600Y-43100
X55400Y-39100
X56400Y-39100
X55400Y-36900
X56400Y-36900
X57400Y-36900
X58400Y-36900
T6
X66000Y-44700
X70000Y-44700
X65400Y-31200
X69400Y-31200
T7
X63000Y-43500
X63000Y-44681
X62600Y-31219
X62600Y-32400
T8
X70315Y-36850
X70315Y-38819
T0
M30
