G04 #@! TF.GenerationSoftware,KiCad,Pcbnew,5.0.0*
G04 #@! TF.CreationDate,2018-09-22T16:12:04+03:00*
G04 #@! TF.ProjectId,stm32-hamster,73746D33322D68616D737465722E6B69,rev?*
G04 #@! TF.SameCoordinates,Original*
G04 #@! TF.FileFunction,Copper,L1,Top*
G04 #@! TF.FilePolarity,Positive*
%FSLAX46Y46*%
G04 Gerber Fmt 4.6, Leading zero omitted, Abs format (unit mm)*
G04 Created by KiCad (PCBNEW 5.0.0) date Sat Sep 22 16:12:04 2018*
%MOMM*%
%LPD*%
G01*
G04 APERTURE LIST*
G04 #@! TA.AperFunction,ComponentPad*
%ADD10O,2.200000X2.200000*%
G04 #@! TD*
G04 #@! TA.AperFunction,ComponentPad*
%ADD11R,2.200000X2.200000*%
G04 #@! TD*
G04 #@! TA.AperFunction,ComponentPad*
%ADD12C,2.400000*%
G04 #@! TD*
G04 #@! TA.AperFunction,ComponentPad*
%ADD13R,1.700000X1.700000*%
G04 #@! TD*
G04 #@! TA.AperFunction,ComponentPad*
%ADD14O,1.700000X1.700000*%
G04 #@! TD*
G04 #@! TA.AperFunction,ComponentPad*
%ADD15R,1.600000X1.600000*%
G04 #@! TD*
G04 #@! TA.AperFunction,ComponentPad*
%ADD16C,1.600000*%
G04 #@! TD*
G04 #@! TA.AperFunction,ComponentPad*
%ADD17O,1.500000X1.050000*%
G04 #@! TD*
G04 #@! TA.AperFunction,ComponentPad*
%ADD18R,1.500000X1.050000*%
G04 #@! TD*
G04 #@! TA.AperFunction,ComponentPad*
%ADD19R,1.524000X1.524000*%
G04 #@! TD*
G04 #@! TA.AperFunction,ComponentPad*
%ADD20C,1.524000*%
G04 #@! TD*
G04 #@! TA.AperFunction,ComponentPad*
%ADD21R,2.600000X2.600000*%
G04 #@! TD*
G04 #@! TA.AperFunction,ComponentPad*
%ADD22C,2.600000*%
G04 #@! TD*
G04 #@! TA.AperFunction,ViaPad*
%ADD23C,0.600000*%
G04 #@! TD*
G04 #@! TA.AperFunction,Conductor*
%ADD24C,0.500000*%
G04 #@! TD*
G04 #@! TA.AperFunction,Conductor*
%ADD25C,0.300000*%
G04 #@! TD*
G04 #@! TA.AperFunction,Conductor*
%ADD26C,0.254000*%
G04 #@! TD*
G04 APERTURE END LIST*
D10*
G04 #@! TO.P,D2,2*
G04 #@! TO.N,GND*
X177800000Y-113538000D03*
D11*
G04 #@! TO.P,D2,1*
G04 #@! TO.N,Net-(D2-Pad1)*
X167640000Y-113538000D03*
G04 #@! TD*
D12*
G04 #@! TO.P,L1,2*
G04 #@! TO.N,+5V*
X160020000Y-110490000D03*
G04 #@! TO.P,L1,1*
G04 #@! TO.N,Net-(D2-Pad1)*
X160020000Y-113490000D03*
G04 #@! TD*
D13*
G04 #@! TO.P,JP2,1*
G04 #@! TO.N,+5V*
X154432000Y-98806000D03*
D14*
G04 #@! TO.P,JP2,2*
G04 #@! TO.N,Net-(J2-Pad1)*
X154432000Y-96266000D03*
G04 #@! TO.P,JP2,3*
G04 #@! TO.N,+3V3*
X154432000Y-93726000D03*
G04 #@! TD*
D15*
G04 #@! TO.P,C1,1*
G04 #@! TO.N,Net-(C1-Pad1)*
X165862000Y-94234000D03*
D16*
G04 #@! TO.P,C1,2*
G04 #@! TO.N,GND*
X165862000Y-98034000D03*
G04 #@! TD*
G04 #@! TO.P,C5,2*
G04 #@! TO.N,GND*
X160020000Y-102148000D03*
D15*
G04 #@! TO.P,C5,1*
G04 #@! TO.N,+5V*
X160020000Y-104648000D03*
G04 #@! TD*
G04 #@! TO.P,C6,1*
G04 #@! TO.N,+3V3*
X159004000Y-87630000D03*
D16*
G04 #@! TO.P,C6,2*
G04 #@! TO.N,GND*
X159004000Y-90130000D03*
G04 #@! TD*
D11*
G04 #@! TO.P,D3,1*
G04 #@! TO.N,Net-(D3-Pad1)*
X166116000Y-79248000D03*
D10*
G04 #@! TO.P,D3,2*
G04 #@! TO.N,GND*
X176276000Y-79248000D03*
G04 #@! TD*
D13*
G04 #@! TO.P,J1,1*
G04 #@! TO.N,GND*
X140716000Y-93726000D03*
D14*
G04 #@! TO.P,J1,2*
G04 #@! TO.N,Net-(J1-Pad2)*
X143256000Y-93726000D03*
G04 #@! TO.P,J1,3*
G04 #@! TO.N,Net-(J1-Pad3)*
X145796000Y-93726000D03*
G04 #@! TO.P,J1,4*
G04 #@! TO.N,+3V3*
X148336000Y-93726000D03*
G04 #@! TD*
D13*
G04 #@! TO.P,J2,1*
G04 #@! TO.N,Net-(J2-Pad1)*
X108200000Y-92870000D03*
D14*
G04 #@! TO.P,J2,2*
G04 #@! TO.N,Net-(J2-Pad2)*
X108200000Y-95410000D03*
G04 #@! TO.P,J2,3*
G04 #@! TO.N,Net-(J2-Pad3)*
X108200000Y-97950000D03*
G04 #@! TO.P,J2,4*
G04 #@! TO.N,GND*
X108200000Y-100490000D03*
G04 #@! TD*
D13*
G04 #@! TO.P,JP1,1*
G04 #@! TO.N,Net-(D1-Pad2)*
X140716000Y-99314000D03*
D14*
G04 #@! TO.P,JP1,2*
G04 #@! TO.N,Net-(J1-Pad2)*
X143256000Y-99314000D03*
G04 #@! TD*
D12*
G04 #@! TO.P,L2,1*
G04 #@! TO.N,Net-(D3-Pad1)*
X159004000Y-79296000D03*
G04 #@! TO.P,L2,2*
G04 #@! TO.N,+3V3*
X159004000Y-82296000D03*
G04 #@! TD*
D17*
G04 #@! TO.P,U1,2*
G04 #@! TO.N,Net-(U1-Pad2)*
X149098000Y-87630000D03*
G04 #@! TO.P,U1,3*
G04 #@! TO.N,+3V3*
X149098000Y-86360000D03*
D18*
G04 #@! TO.P,U1,1*
G04 #@! TO.N,GND*
X149098000Y-88900000D03*
G04 #@! TD*
D19*
G04 #@! TO.P,U5,1*
G04 #@! TO.N,GND*
X149700000Y-79450000D03*
D20*
G04 #@! TO.P,U5,2*
G04 #@! TO.N,+3V3*
X149700000Y-81990000D03*
G04 #@! TO.P,U5,3*
G04 #@! TO.N,Net-(U4-Pad8)*
X147160000Y-79450000D03*
G04 #@! TO.P,U5,4*
G04 #@! TO.N,Net-(U4-Pad9)*
X147160000Y-81990000D03*
G04 #@! TO.P,U5,5*
G04 #@! TO.N,Net-(U4-Pad11)*
X144620000Y-79450000D03*
G04 #@! TO.P,U5,6*
G04 #@! TO.N,Net-(U4-Pad13)*
X144620000Y-81990000D03*
G04 #@! TO.P,U5,7*
G04 #@! TO.N,Net-(U4-Pad12)*
X142080000Y-79450000D03*
G04 #@! TO.P,U5,8*
G04 #@! TO.N,Net-(U4-Pad10)*
X142080000Y-81990000D03*
G04 #@! TD*
D21*
G04 #@! TO.P,BT1,1*
G04 #@! TO.N,+BATT*
X178600000Y-93600000D03*
D22*
G04 #@! TO.P,BT1,2*
G04 #@! TO.N,GND*
X178600000Y-98600000D03*
G04 #@! TD*
D13*
G04 #@! TO.P,J3,1*
G04 #@! TO.N,+3V3*
X108204000Y-106934000D03*
D14*
G04 #@! TO.P,J3,2*
G04 #@! TO.N,Net-(J3-Pad2)*
X108204000Y-109474000D03*
G04 #@! TD*
G04 #@! TO.P,J4,2*
G04 #@! TO.N,Net-(J4-Pad2)*
X108204000Y-83058000D03*
D13*
G04 #@! TO.P,J4,1*
G04 #@! TO.N,+3V3*
X108204000Y-85598000D03*
G04 #@! TD*
D23*
G04 #@! TO.N,GND*
X113030000Y-89154000D03*
X135636000Y-91694000D03*
X132080000Y-84836000D03*
X112558500Y-103414500D03*
X178562000Y-79248000D03*
X180848000Y-100838000D03*
X137414000Y-93726000D03*
X166878000Y-106172000D03*
X170688000Y-106172000D03*
G04 #@! TO.N,Net-(C3-Pad1)*
X174498000Y-106426000D03*
X178816000Y-106426000D03*
G04 #@! TO.N,+3V3*
X124206000Y-93726000D03*
X132588000Y-98806000D03*
G04 #@! TO.N,Net-(J1-Pad2)*
X141224010Y-91440000D03*
X138430000Y-88646002D03*
G04 #@! TO.N,Net-(J2-Pad3)*
X132334000Y-88392000D03*
X112522000Y-98044001D03*
G04 #@! TO.N,Net-(J2-Pad2)*
X132334000Y-87122000D03*
X112522000Y-95504000D03*
G04 #@! TO.N,Net-(J2-Pad1)*
X147574000Y-112776000D03*
X110744000Y-92964000D03*
G04 #@! TO.N,Net-(R5-Pad1)*
X167894000Y-85852000D03*
X172720000Y-86360000D03*
G04 #@! TO.N,Net-(U4-Pad9)*
X139700000Y-85090000D03*
X132080000Y-82804000D03*
G04 #@! TO.N,Net-(U4-Pad10)*
X131550000Y-81225000D03*
X139125000Y-81200000D03*
G04 #@! TD*
D24*
G04 #@! TO.N,GND*
X176276000Y-79248000D02*
X178562000Y-79248000D01*
X166878000Y-106172000D02*
X170688000Y-106172000D01*
G04 #@! TO.N,Net-(C3-Pad1)*
X174498000Y-106426000D02*
X178816000Y-106426000D01*
G04 #@! TO.N,+3V3*
X124206000Y-93726000D02*
X129286000Y-98806000D01*
X129286000Y-98806000D02*
X132163736Y-98806000D01*
X132163736Y-98806000D02*
X132588000Y-98806000D01*
D25*
G04 #@! TO.N,Net-(J1-Pad2)*
X138430012Y-88646002D02*
X138430000Y-88646002D01*
X141224010Y-91440000D02*
X138430012Y-88646002D01*
G04 #@! TO.N,Net-(J2-Pad3)*
X132334000Y-88392000D02*
X122174001Y-88392000D01*
X122174001Y-88392000D02*
X112821999Y-97744002D01*
X112821999Y-97744002D02*
X112522000Y-98044001D01*
G04 #@! TO.N,Net-(J2-Pad2)*
X120904000Y-87122000D02*
X112821999Y-95204001D01*
X112821999Y-95204001D02*
X112522000Y-95504000D01*
X132334000Y-87122000D02*
X120904000Y-87122000D01*
D24*
G04 #@! TO.N,Net-(J2-Pad1)*
X110744000Y-93388264D02*
X110744000Y-92964000D01*
X110744000Y-111252000D02*
X110744000Y-93388264D01*
X147574000Y-112776000D02*
X112268000Y-112776000D01*
X112268000Y-112776000D02*
X110744000Y-111252000D01*
G04 #@! TO.N,Net-(R5-Pad1)*
X167894000Y-85852000D02*
X168402000Y-86360000D01*
X168402000Y-86360000D02*
X172720000Y-86360000D01*
D25*
G04 #@! TO.N,Net-(U4-Pad9)*
X134366000Y-85090000D02*
X132379999Y-83103999D01*
X132379999Y-83103999D02*
X132080000Y-82804000D01*
X139700000Y-85090000D02*
X134366000Y-85090000D01*
G04 #@! TO.N,Net-(U4-Pad10)*
X131550000Y-81225000D02*
X139100000Y-81225000D01*
X139100000Y-81225000D02*
X139125000Y-81200000D01*
G04 #@! TD*
D26*
G04 #@! TO.N,GND*
G36*
X128422890Y-76423793D02*
X127978466Y-77006127D01*
X127746632Y-77701021D01*
X127752386Y-78433545D01*
X127995106Y-79124712D01*
X128448621Y-79699993D01*
X129064029Y-80097357D01*
X129774971Y-80273956D01*
X130504786Y-80210747D01*
X131174778Y-79914547D01*
X131712704Y-79417293D01*
X131844992Y-79172119D01*
X140683000Y-79172119D01*
X140683000Y-79727881D01*
X140895680Y-80241337D01*
X141288663Y-80634320D01*
X141495513Y-80720000D01*
X141288663Y-80805680D01*
X140895680Y-81198663D01*
X140683000Y-81712119D01*
X140683000Y-82267881D01*
X140895680Y-82781337D01*
X141288663Y-83174320D01*
X141802119Y-83387000D01*
X142357881Y-83387000D01*
X142871337Y-83174320D01*
X143264320Y-82781337D01*
X143350000Y-82574487D01*
X143435680Y-82781337D01*
X143828663Y-83174320D01*
X144342119Y-83387000D01*
X144897881Y-83387000D01*
X145411337Y-83174320D01*
X145804320Y-82781337D01*
X145890000Y-82574487D01*
X145975680Y-82781337D01*
X146368663Y-83174320D01*
X146882119Y-83387000D01*
X147437881Y-83387000D01*
X147951337Y-83174320D01*
X148344320Y-82781337D01*
X148430000Y-82574487D01*
X148515680Y-82781337D01*
X148908663Y-83174320D01*
X149422119Y-83387000D01*
X149977881Y-83387000D01*
X150491337Y-83174320D01*
X150884320Y-82781337D01*
X151097000Y-82267881D01*
X151097000Y-81712119D01*
X150884320Y-81198663D01*
X150532657Y-80847000D01*
X150588310Y-80847000D01*
X150821699Y-80750327D01*
X151000327Y-80571698D01*
X151097000Y-80338309D01*
X151097000Y-79735750D01*
X150938250Y-79577000D01*
X149827000Y-79577000D01*
X149827000Y-79597000D01*
X149573000Y-79597000D01*
X149573000Y-79577000D01*
X149553000Y-79577000D01*
X149553000Y-79323000D01*
X149573000Y-79323000D01*
X149573000Y-78211750D01*
X149827000Y-78211750D01*
X149827000Y-79323000D01*
X150938250Y-79323000D01*
X151097000Y-79164250D01*
X151097000Y-78930996D01*
X157169000Y-78930996D01*
X157169000Y-79661004D01*
X157448362Y-80335444D01*
X157908918Y-80796000D01*
X157448362Y-81256556D01*
X157169000Y-81930996D01*
X157169000Y-82661004D01*
X157448362Y-83335444D01*
X157964556Y-83851638D01*
X158638996Y-84131000D01*
X159369004Y-84131000D01*
X160043444Y-83851638D01*
X160559638Y-83335444D01*
X160839000Y-82661004D01*
X160839000Y-81930996D01*
X160559638Y-81256556D01*
X160099082Y-80796000D01*
X160559638Y-80335444D01*
X160839000Y-79661004D01*
X160839000Y-78930996D01*
X160559638Y-78256556D01*
X160451082Y-78148000D01*
X164368560Y-78148000D01*
X164368560Y-80348000D01*
X164417843Y-80595765D01*
X164558191Y-80805809D01*
X164768235Y-80946157D01*
X165016000Y-80995440D01*
X167216000Y-80995440D01*
X167463765Y-80946157D01*
X167673809Y-80805809D01*
X167814157Y-80595765D01*
X167863440Y-80348000D01*
X167863440Y-79644122D01*
X174586825Y-79644122D01*
X174801466Y-80162332D01*
X175263608Y-80657012D01*
X175879877Y-80937183D01*
X176149000Y-80819604D01*
X176149000Y-79375000D01*
X176403000Y-79375000D01*
X176403000Y-80819604D01*
X176672123Y-80937183D01*
X177288392Y-80657012D01*
X177750534Y-80162332D01*
X177965175Y-79644122D01*
X177847125Y-79375000D01*
X176403000Y-79375000D01*
X176149000Y-79375000D01*
X174704875Y-79375000D01*
X174586825Y-79644122D01*
X167863440Y-79644122D01*
X167863440Y-78851878D01*
X174586825Y-78851878D01*
X174704875Y-79121000D01*
X176149000Y-79121000D01*
X176149000Y-77676396D01*
X176403000Y-77676396D01*
X176403000Y-79121000D01*
X177847125Y-79121000D01*
X177965175Y-78851878D01*
X177750534Y-78333668D01*
X177288392Y-77838988D01*
X176672123Y-77558817D01*
X176403000Y-77676396D01*
X176149000Y-77676396D01*
X175879877Y-77558817D01*
X175263608Y-77838988D01*
X174801466Y-78333668D01*
X174586825Y-78851878D01*
X167863440Y-78851878D01*
X167863440Y-78148000D01*
X167814157Y-77900235D01*
X167673809Y-77690191D01*
X167463765Y-77549843D01*
X167216000Y-77500560D01*
X165016000Y-77500560D01*
X164768235Y-77549843D01*
X164558191Y-77690191D01*
X164417843Y-77900235D01*
X164368560Y-78148000D01*
X160451082Y-78148000D01*
X160043444Y-77740362D01*
X159369004Y-77461000D01*
X158638996Y-77461000D01*
X157964556Y-77740362D01*
X157448362Y-78256556D01*
X157169000Y-78930996D01*
X151097000Y-78930996D01*
X151097000Y-78561691D01*
X151000327Y-78328302D01*
X150821699Y-78149673D01*
X150588310Y-78053000D01*
X149985750Y-78053000D01*
X149827000Y-78211750D01*
X149573000Y-78211750D01*
X149414250Y-78053000D01*
X148811690Y-78053000D01*
X148578301Y-78149673D01*
X148399673Y-78328302D01*
X148303000Y-78561691D01*
X148303000Y-78617343D01*
X147951337Y-78265680D01*
X147437881Y-78053000D01*
X146882119Y-78053000D01*
X146368663Y-78265680D01*
X145975680Y-78658663D01*
X145890000Y-78865513D01*
X145804320Y-78658663D01*
X145411337Y-78265680D01*
X144897881Y-78053000D01*
X144342119Y-78053000D01*
X143828663Y-78265680D01*
X143435680Y-78658663D01*
X143350000Y-78865513D01*
X143264320Y-78658663D01*
X142871337Y-78265680D01*
X142357881Y-78053000D01*
X141802119Y-78053000D01*
X141288663Y-78265680D01*
X140895680Y-78658663D01*
X140683000Y-79172119D01*
X131844992Y-79172119D01*
X132060558Y-78772606D01*
X132180833Y-78050000D01*
X132180558Y-78014960D01*
X132048948Y-77294332D01*
X131691010Y-76655188D01*
X131249792Y-76260000D01*
X180619502Y-76260000D01*
X180373460Y-76424400D01*
X179929203Y-77006517D01*
X179697455Y-77701151D01*
X179703206Y-78433402D01*
X179945836Y-79124311D01*
X180399182Y-79699377D01*
X181014360Y-80096593D01*
X181725036Y-80273126D01*
X182454578Y-80209940D01*
X183124321Y-79913850D01*
X183662046Y-79416783D01*
X183690000Y-79364975D01*
X183690001Y-113744349D01*
X183640360Y-113655709D01*
X183094894Y-113167149D01*
X182420583Y-112881615D01*
X181690138Y-112829897D01*
X180982323Y-113017571D01*
X180373460Y-113424400D01*
X179929203Y-114006517D01*
X179697455Y-114701151D01*
X179703206Y-115433402D01*
X179945836Y-116124311D01*
X180399182Y-116699377D01*
X180616968Y-116840000D01*
X131205422Y-116840000D01*
X131662704Y-116417293D01*
X132010558Y-115772606D01*
X132130833Y-115050000D01*
X132130558Y-115014960D01*
X131998948Y-114294332D01*
X131644265Y-113661000D01*
X147267306Y-113661000D01*
X147388017Y-113711000D01*
X147759983Y-113711000D01*
X148103635Y-113568655D01*
X148366655Y-113305635D01*
X148509000Y-112961983D01*
X148509000Y-112590017D01*
X148366655Y-112246365D01*
X148103635Y-111983345D01*
X147759983Y-111841000D01*
X147388017Y-111841000D01*
X147267306Y-111891000D01*
X112634579Y-111891000D01*
X111629000Y-110885422D01*
X111629000Y-110124996D01*
X158185000Y-110124996D01*
X158185000Y-110855004D01*
X158464362Y-111529444D01*
X158924918Y-111990000D01*
X158464362Y-112450556D01*
X158185000Y-113124996D01*
X158185000Y-113855004D01*
X158464362Y-114529444D01*
X158980556Y-115045638D01*
X159654996Y-115325000D01*
X160385004Y-115325000D01*
X161059444Y-115045638D01*
X161575638Y-114529444D01*
X161855000Y-113855004D01*
X161855000Y-113124996D01*
X161575638Y-112450556D01*
X161563082Y-112438000D01*
X165892560Y-112438000D01*
X165892560Y-114638000D01*
X165941843Y-114885765D01*
X166082191Y-115095809D01*
X166292235Y-115236157D01*
X166540000Y-115285440D01*
X168740000Y-115285440D01*
X168987765Y-115236157D01*
X169197809Y-115095809D01*
X169338157Y-114885765D01*
X169387440Y-114638000D01*
X169387440Y-113934122D01*
X176110825Y-113934122D01*
X176325466Y-114452332D01*
X176787608Y-114947012D01*
X177403877Y-115227183D01*
X177673000Y-115109604D01*
X177673000Y-113665000D01*
X177927000Y-113665000D01*
X177927000Y-115109604D01*
X178196123Y-115227183D01*
X178812392Y-114947012D01*
X179274534Y-114452332D01*
X179489175Y-113934122D01*
X179371125Y-113665000D01*
X177927000Y-113665000D01*
X177673000Y-113665000D01*
X176228875Y-113665000D01*
X176110825Y-113934122D01*
X169387440Y-113934122D01*
X169387440Y-113141878D01*
X176110825Y-113141878D01*
X176228875Y-113411000D01*
X177673000Y-113411000D01*
X177673000Y-111966396D01*
X177927000Y-111966396D01*
X177927000Y-113411000D01*
X179371125Y-113411000D01*
X179489175Y-113141878D01*
X179274534Y-112623668D01*
X178812392Y-112128988D01*
X178196123Y-111848817D01*
X177927000Y-111966396D01*
X177673000Y-111966396D01*
X177403877Y-111848817D01*
X176787608Y-112128988D01*
X176325466Y-112623668D01*
X176110825Y-113141878D01*
X169387440Y-113141878D01*
X169387440Y-112438000D01*
X169338157Y-112190235D01*
X169197809Y-111980191D01*
X168987765Y-111839843D01*
X168740000Y-111790560D01*
X166540000Y-111790560D01*
X166292235Y-111839843D01*
X166082191Y-111980191D01*
X165941843Y-112190235D01*
X165892560Y-112438000D01*
X161563082Y-112438000D01*
X161115082Y-111990000D01*
X161575638Y-111529444D01*
X161855000Y-110855004D01*
X161855000Y-110124996D01*
X161575638Y-109450556D01*
X161059444Y-108934362D01*
X160385004Y-108655000D01*
X159654996Y-108655000D01*
X158980556Y-108934362D01*
X158464362Y-109450556D01*
X158185000Y-110124996D01*
X111629000Y-110124996D01*
X111629000Y-106240017D01*
X173563000Y-106240017D01*
X173563000Y-106611983D01*
X173705345Y-106955635D01*
X173968365Y-107218655D01*
X174312017Y-107361000D01*
X174683983Y-107361000D01*
X174804694Y-107311000D01*
X178509306Y-107311000D01*
X178630017Y-107361000D01*
X179001983Y-107361000D01*
X179345635Y-107218655D01*
X179608655Y-106955635D01*
X179751000Y-106611983D01*
X179751000Y-106240017D01*
X179608655Y-105896365D01*
X179345635Y-105633345D01*
X179001983Y-105491000D01*
X178630017Y-105491000D01*
X178509306Y-105541000D01*
X174804694Y-105541000D01*
X174683983Y-105491000D01*
X174312017Y-105491000D01*
X173968365Y-105633345D01*
X173705345Y-105896365D01*
X173563000Y-106240017D01*
X111629000Y-106240017D01*
X111629000Y-103848000D01*
X158572560Y-103848000D01*
X158572560Y-105448000D01*
X158621843Y-105695765D01*
X158762191Y-105905809D01*
X158972235Y-106046157D01*
X159220000Y-106095440D01*
X160820000Y-106095440D01*
X161067765Y-106046157D01*
X161277809Y-105905809D01*
X161418157Y-105695765D01*
X161467440Y-105448000D01*
X161467440Y-103848000D01*
X161418157Y-103600235D01*
X161277809Y-103390191D01*
X161067765Y-103249843D01*
X160833813Y-103203307D01*
X160848139Y-103155745D01*
X160020000Y-102327605D01*
X159191861Y-103155745D01*
X159206187Y-103203307D01*
X158972235Y-103249843D01*
X158762191Y-103390191D01*
X158621843Y-103600235D01*
X158572560Y-103848000D01*
X111629000Y-103848000D01*
X111629000Y-101931223D01*
X158573035Y-101931223D01*
X158600222Y-102501454D01*
X158766136Y-102902005D01*
X159012255Y-102976139D01*
X159840395Y-102148000D01*
X160199605Y-102148000D01*
X161027745Y-102976139D01*
X161273864Y-102902005D01*
X161466965Y-102364777D01*
X161439778Y-101794546D01*
X161273864Y-101393995D01*
X161027745Y-101319861D01*
X160199605Y-102148000D01*
X159840395Y-102148000D01*
X159012255Y-101319861D01*
X158766136Y-101393995D01*
X158573035Y-101931223D01*
X111629000Y-101931223D01*
X111629000Y-101140255D01*
X159191861Y-101140255D01*
X160020000Y-101968395D01*
X160848139Y-101140255D01*
X160774005Y-100894136D01*
X160236777Y-100701035D01*
X159666546Y-100728222D01*
X159265995Y-100894136D01*
X159191861Y-101140255D01*
X111629000Y-101140255D01*
X111629000Y-98331381D01*
X111729345Y-98573636D01*
X111992365Y-98836656D01*
X112336017Y-98979001D01*
X112707983Y-98979001D01*
X113051635Y-98836656D01*
X113314655Y-98573636D01*
X113457000Y-98229984D01*
X113457000Y-98219158D01*
X118136141Y-93540017D01*
X123271000Y-93540017D01*
X123271000Y-93911983D01*
X123413345Y-94255635D01*
X123676365Y-94518655D01*
X123797078Y-94568656D01*
X128598577Y-99370156D01*
X128647951Y-99444049D01*
X128721844Y-99493423D01*
X128721845Y-99493424D01*
X128879334Y-99598655D01*
X128940690Y-99639652D01*
X129198835Y-99691000D01*
X129198839Y-99691000D01*
X129286000Y-99708337D01*
X129373161Y-99691000D01*
X132281306Y-99691000D01*
X132402017Y-99741000D01*
X132773983Y-99741000D01*
X133117635Y-99598655D01*
X133380655Y-99335635D01*
X133523000Y-98991983D01*
X133523000Y-98620017D01*
X133458376Y-98464000D01*
X139218560Y-98464000D01*
X139218560Y-100164000D01*
X139267843Y-100411765D01*
X139408191Y-100621809D01*
X139618235Y-100762157D01*
X139866000Y-100811440D01*
X141566000Y-100811440D01*
X141813765Y-100762157D01*
X142023809Y-100621809D01*
X142164157Y-100411765D01*
X142173184Y-100366381D01*
X142185375Y-100384625D01*
X142676582Y-100712839D01*
X143109744Y-100799000D01*
X143402256Y-100799000D01*
X143835418Y-100712839D01*
X144326625Y-100384625D01*
X144654839Y-99893418D01*
X144770092Y-99314000D01*
X144654839Y-98734582D01*
X144326625Y-98243375D01*
X143835418Y-97915161D01*
X143402256Y-97829000D01*
X143109744Y-97829000D01*
X142676582Y-97915161D01*
X142185375Y-98243375D01*
X142173184Y-98261619D01*
X142164157Y-98216235D01*
X142023809Y-98006191D01*
X141813765Y-97865843D01*
X141566000Y-97816560D01*
X139866000Y-97816560D01*
X139618235Y-97865843D01*
X139408191Y-98006191D01*
X139267843Y-98216235D01*
X139218560Y-98464000D01*
X133458376Y-98464000D01*
X133380655Y-98276365D01*
X133117635Y-98013345D01*
X132773983Y-97871000D01*
X132402017Y-97871000D01*
X132281306Y-97921000D01*
X129652579Y-97921000D01*
X125743329Y-94011750D01*
X139231000Y-94011750D01*
X139231000Y-94702309D01*
X139327673Y-94935698D01*
X139506301Y-95114327D01*
X139739690Y-95211000D01*
X140430250Y-95211000D01*
X140589000Y-95052250D01*
X140589000Y-93853000D01*
X139389750Y-93853000D01*
X139231000Y-94011750D01*
X125743329Y-94011750D01*
X125048656Y-93317078D01*
X124998655Y-93196365D01*
X124735635Y-92933345D01*
X124391983Y-92791000D01*
X124020017Y-92791000D01*
X123676365Y-92933345D01*
X123413345Y-93196365D01*
X123271000Y-93540017D01*
X118136141Y-93540017D01*
X122499159Y-89177000D01*
X131796710Y-89177000D01*
X131804365Y-89184655D01*
X132148017Y-89327000D01*
X132519983Y-89327000D01*
X132863635Y-89184655D01*
X133126655Y-88921635D01*
X133269000Y-88577983D01*
X133269000Y-88460019D01*
X137495000Y-88460019D01*
X137495000Y-88831985D01*
X137637345Y-89175637D01*
X137900365Y-89438657D01*
X138244017Y-89581002D01*
X138254855Y-89581002D01*
X140289010Y-91615158D01*
X140289010Y-91625983D01*
X140431355Y-91969635D01*
X140694375Y-92232655D01*
X140714522Y-92241000D01*
X140588998Y-92241000D01*
X140588998Y-92399748D01*
X140430250Y-92241000D01*
X139739690Y-92241000D01*
X139506301Y-92337673D01*
X139327673Y-92516302D01*
X139231000Y-92749691D01*
X139231000Y-93440250D01*
X139389750Y-93599000D01*
X140589000Y-93599000D01*
X140589000Y-93579000D01*
X140843000Y-93579000D01*
X140843000Y-93599000D01*
X140863000Y-93599000D01*
X140863000Y-93853000D01*
X140843000Y-93853000D01*
X140843000Y-95052250D01*
X141001750Y-95211000D01*
X141692310Y-95211000D01*
X141925699Y-95114327D01*
X142104327Y-94935698D01*
X142170904Y-94774967D01*
X142185375Y-94796625D01*
X142676582Y-95124839D01*
X143109744Y-95211000D01*
X143402256Y-95211000D01*
X143835418Y-95124839D01*
X144326625Y-94796625D01*
X144526000Y-94498239D01*
X144725375Y-94796625D01*
X145216582Y-95124839D01*
X145649744Y-95211000D01*
X145942256Y-95211000D01*
X146375418Y-95124839D01*
X146866625Y-94796625D01*
X147066000Y-94498239D01*
X147265375Y-94796625D01*
X147756582Y-95124839D01*
X148189744Y-95211000D01*
X148482256Y-95211000D01*
X148915418Y-95124839D01*
X149406625Y-94796625D01*
X149734839Y-94305418D01*
X149850092Y-93726000D01*
X152917908Y-93726000D01*
X153033161Y-94305418D01*
X153361375Y-94796625D01*
X153659761Y-94996000D01*
X153361375Y-95195375D01*
X153033161Y-95686582D01*
X152917908Y-96266000D01*
X153033161Y-96845418D01*
X153361375Y-97336625D01*
X153379619Y-97348816D01*
X153334235Y-97357843D01*
X153124191Y-97498191D01*
X152983843Y-97708235D01*
X152934560Y-97956000D01*
X152934560Y-99656000D01*
X152983843Y-99903765D01*
X153124191Y-100113809D01*
X153334235Y-100254157D01*
X153582000Y-100303440D01*
X155282000Y-100303440D01*
X155529765Y-100254157D01*
X155739809Y-100113809D01*
X155836261Y-99969459D01*
X177410146Y-99969459D01*
X177545504Y-100267455D01*
X178263880Y-100544066D01*
X179033427Y-100524710D01*
X179654496Y-100267455D01*
X179789854Y-99969459D01*
X178600000Y-98779605D01*
X177410146Y-99969459D01*
X155836261Y-99969459D01*
X155880157Y-99903765D01*
X155929440Y-99656000D01*
X155929440Y-99041745D01*
X165033861Y-99041745D01*
X165107995Y-99287864D01*
X165645223Y-99480965D01*
X166215454Y-99453778D01*
X166616005Y-99287864D01*
X166690139Y-99041745D01*
X165862000Y-98213605D01*
X165033861Y-99041745D01*
X155929440Y-99041745D01*
X155929440Y-97956000D01*
X155901836Y-97817223D01*
X164415035Y-97817223D01*
X164442222Y-98387454D01*
X164608136Y-98788005D01*
X164854255Y-98862139D01*
X165682395Y-98034000D01*
X166041605Y-98034000D01*
X166869745Y-98862139D01*
X167115864Y-98788005D01*
X167304255Y-98263880D01*
X176655934Y-98263880D01*
X176675290Y-99033427D01*
X176932545Y-99654496D01*
X177230541Y-99789854D01*
X178420395Y-98600000D01*
X178779605Y-98600000D01*
X179969459Y-99789854D01*
X180267455Y-99654496D01*
X180544066Y-98936120D01*
X180524710Y-98166573D01*
X180267455Y-97545504D01*
X179969459Y-97410146D01*
X178779605Y-98600000D01*
X178420395Y-98600000D01*
X177230541Y-97410146D01*
X176932545Y-97545504D01*
X176655934Y-98263880D01*
X167304255Y-98263880D01*
X167308965Y-98250777D01*
X167281778Y-97680546D01*
X167115864Y-97279995D01*
X166951681Y-97230541D01*
X177410146Y-97230541D01*
X178600000Y-98420395D01*
X179789854Y-97230541D01*
X179654496Y-96932545D01*
X178936120Y-96655934D01*
X178166573Y-96675290D01*
X177545504Y-96932545D01*
X177410146Y-97230541D01*
X166951681Y-97230541D01*
X166869745Y-97205861D01*
X166041605Y-98034000D01*
X165682395Y-98034000D01*
X164854255Y-97205861D01*
X164608136Y-97279995D01*
X164415035Y-97817223D01*
X155901836Y-97817223D01*
X155880157Y-97708235D01*
X155739809Y-97498191D01*
X155529765Y-97357843D01*
X155484381Y-97348816D01*
X155502625Y-97336625D01*
X155710007Y-97026255D01*
X165033861Y-97026255D01*
X165862000Y-97854395D01*
X166690139Y-97026255D01*
X166616005Y-96780136D01*
X166078777Y-96587035D01*
X165508546Y-96614222D01*
X165107995Y-96780136D01*
X165033861Y-97026255D01*
X155710007Y-97026255D01*
X155830839Y-96845418D01*
X155946092Y-96266000D01*
X155830839Y-95686582D01*
X155502625Y-95195375D01*
X155204239Y-94996000D01*
X155502625Y-94796625D01*
X155830839Y-94305418D01*
X155946092Y-93726000D01*
X155888010Y-93434000D01*
X164414560Y-93434000D01*
X164414560Y-95034000D01*
X164463843Y-95281765D01*
X164604191Y-95491809D01*
X164814235Y-95632157D01*
X165062000Y-95681440D01*
X166662000Y-95681440D01*
X166909765Y-95632157D01*
X167119809Y-95491809D01*
X167260157Y-95281765D01*
X167309440Y-95034000D01*
X167309440Y-93434000D01*
X167260157Y-93186235D01*
X167119809Y-92976191D01*
X166909765Y-92835843D01*
X166662000Y-92786560D01*
X165062000Y-92786560D01*
X164814235Y-92835843D01*
X164604191Y-92976191D01*
X164463843Y-93186235D01*
X164414560Y-93434000D01*
X155888010Y-93434000D01*
X155830839Y-93146582D01*
X155502625Y-92655375D01*
X155011418Y-92327161D01*
X154874870Y-92300000D01*
X176652560Y-92300000D01*
X176652560Y-94900000D01*
X176701843Y-95147765D01*
X176842191Y-95357809D01*
X177052235Y-95498157D01*
X177300000Y-95547440D01*
X179900000Y-95547440D01*
X180147765Y-95498157D01*
X180357809Y-95357809D01*
X180498157Y-95147765D01*
X180547440Y-94900000D01*
X180547440Y-92300000D01*
X180498157Y-92052235D01*
X180357809Y-91842191D01*
X180147765Y-91701843D01*
X179900000Y-91652560D01*
X177300000Y-91652560D01*
X177052235Y-91701843D01*
X176842191Y-91842191D01*
X176701843Y-92052235D01*
X176652560Y-92300000D01*
X154874870Y-92300000D01*
X154578256Y-92241000D01*
X154285744Y-92241000D01*
X153852582Y-92327161D01*
X153361375Y-92655375D01*
X153033161Y-93146582D01*
X152917908Y-93726000D01*
X149850092Y-93726000D01*
X149734839Y-93146582D01*
X149406625Y-92655375D01*
X148915418Y-92327161D01*
X148482256Y-92241000D01*
X148189744Y-92241000D01*
X147756582Y-92327161D01*
X147265375Y-92655375D01*
X147066000Y-92953761D01*
X146866625Y-92655375D01*
X146375418Y-92327161D01*
X145942256Y-92241000D01*
X145649744Y-92241000D01*
X145216582Y-92327161D01*
X144725375Y-92655375D01*
X144526000Y-92953761D01*
X144326625Y-92655375D01*
X143835418Y-92327161D01*
X143402256Y-92241000D01*
X143109744Y-92241000D01*
X142676582Y-92327161D01*
X142185375Y-92655375D01*
X142170904Y-92677033D01*
X142104327Y-92516302D01*
X141925699Y-92337673D01*
X141712904Y-92249530D01*
X141753645Y-92232655D01*
X142016665Y-91969635D01*
X142159010Y-91625983D01*
X142159010Y-91254017D01*
X142110849Y-91137745D01*
X158175861Y-91137745D01*
X158249995Y-91383864D01*
X158787223Y-91576965D01*
X159357454Y-91549778D01*
X159758005Y-91383864D01*
X159832139Y-91137745D01*
X159004000Y-90309605D01*
X158175861Y-91137745D01*
X142110849Y-91137745D01*
X142016665Y-90910365D01*
X141753645Y-90647345D01*
X141409993Y-90505000D01*
X141399168Y-90505000D01*
X140079918Y-89185750D01*
X147713000Y-89185750D01*
X147713000Y-89551309D01*
X147809673Y-89784698D01*
X147988301Y-89963327D01*
X148221690Y-90060000D01*
X148812250Y-90060000D01*
X148971000Y-89901250D01*
X148971000Y-89027000D01*
X149225000Y-89027000D01*
X149225000Y-89901250D01*
X149383750Y-90060000D01*
X149974310Y-90060000D01*
X150207699Y-89963327D01*
X150257802Y-89913223D01*
X157557035Y-89913223D01*
X157584222Y-90483454D01*
X157750136Y-90884005D01*
X157996255Y-90958139D01*
X158824395Y-90130000D01*
X159183605Y-90130000D01*
X160011745Y-90958139D01*
X160257864Y-90884005D01*
X160450965Y-90346777D01*
X160423778Y-89776546D01*
X160257864Y-89375995D01*
X160011745Y-89301861D01*
X159183605Y-90130000D01*
X158824395Y-90130000D01*
X157996255Y-89301861D01*
X157750136Y-89375995D01*
X157557035Y-89913223D01*
X150257802Y-89913223D01*
X150386327Y-89784698D01*
X150483000Y-89551309D01*
X150483000Y-89185750D01*
X150324250Y-89027000D01*
X149225000Y-89027000D01*
X148971000Y-89027000D01*
X147871750Y-89027000D01*
X147713000Y-89185750D01*
X140079918Y-89185750D01*
X139365000Y-88470833D01*
X139365000Y-88460019D01*
X139222655Y-88116367D01*
X138959635Y-87853347D01*
X138615983Y-87711002D01*
X138244017Y-87711002D01*
X137900365Y-87853347D01*
X137637345Y-88116367D01*
X137495000Y-88460019D01*
X133269000Y-88460019D01*
X133269000Y-88206017D01*
X133126655Y-87862365D01*
X133021290Y-87757000D01*
X133126655Y-87651635D01*
X133269000Y-87307983D01*
X133269000Y-86936017D01*
X133126655Y-86592365D01*
X132894290Y-86360000D01*
X147690275Y-86360000D01*
X147780305Y-86812609D01*
X147902174Y-86995000D01*
X147780305Y-87177391D01*
X147690275Y-87630000D01*
X147780305Y-88082609D01*
X147781224Y-88083984D01*
X147713000Y-88248691D01*
X147713000Y-88614250D01*
X147871750Y-88773000D01*
X148673290Y-88773000D01*
X148758754Y-88790000D01*
X149437246Y-88790000D01*
X149522710Y-88773000D01*
X150324250Y-88773000D01*
X150483000Y-88614250D01*
X150483000Y-88248691D01*
X150414776Y-88083984D01*
X150415695Y-88082609D01*
X150505725Y-87630000D01*
X150415695Y-87177391D01*
X150293826Y-86995000D01*
X150404074Y-86830000D01*
X157556560Y-86830000D01*
X157556560Y-88430000D01*
X157605843Y-88677765D01*
X157746191Y-88887809D01*
X157956235Y-89028157D01*
X158190187Y-89074693D01*
X158175861Y-89122255D01*
X159004000Y-89950395D01*
X159832139Y-89122255D01*
X159817813Y-89074693D01*
X160051765Y-89028157D01*
X160261809Y-88887809D01*
X160402157Y-88677765D01*
X160451440Y-88430000D01*
X160451440Y-86830000D01*
X160402157Y-86582235D01*
X160261809Y-86372191D01*
X160051765Y-86231843D01*
X159804000Y-86182560D01*
X158204000Y-86182560D01*
X157956235Y-86231843D01*
X157746191Y-86372191D01*
X157605843Y-86582235D01*
X157556560Y-86830000D01*
X150404074Y-86830000D01*
X150415695Y-86812609D01*
X150505725Y-86360000D01*
X150415695Y-85907391D01*
X150254415Y-85666017D01*
X166959000Y-85666017D01*
X166959000Y-86037983D01*
X167101345Y-86381635D01*
X167364365Y-86644655D01*
X167485078Y-86694656D01*
X167714575Y-86924153D01*
X167763951Y-86998049D01*
X168056690Y-87193652D01*
X168314835Y-87245000D01*
X168314839Y-87245000D01*
X168401999Y-87262337D01*
X168489159Y-87245000D01*
X172413306Y-87245000D01*
X172534017Y-87295000D01*
X172905983Y-87295000D01*
X173249635Y-87152655D01*
X173512655Y-86889635D01*
X173655000Y-86545983D01*
X173655000Y-86174017D01*
X173512655Y-85830365D01*
X173249635Y-85567345D01*
X172905983Y-85425000D01*
X172534017Y-85425000D01*
X172413306Y-85475000D01*
X168768578Y-85475000D01*
X168736656Y-85443078D01*
X168686655Y-85322365D01*
X168423635Y-85059345D01*
X168079983Y-84917000D01*
X167708017Y-84917000D01*
X167364365Y-85059345D01*
X167101345Y-85322365D01*
X166959000Y-85666017D01*
X150254415Y-85666017D01*
X150159313Y-85523687D01*
X149775609Y-85267305D01*
X149437246Y-85200000D01*
X148758754Y-85200000D01*
X148420391Y-85267305D01*
X148036687Y-85523687D01*
X147780305Y-85907391D01*
X147690275Y-86360000D01*
X132894290Y-86360000D01*
X132863635Y-86329345D01*
X132519983Y-86187000D01*
X132148017Y-86187000D01*
X131804365Y-86329345D01*
X131796710Y-86337000D01*
X120981310Y-86337000D01*
X120903999Y-86321622D01*
X120826688Y-86337000D01*
X120826684Y-86337000D01*
X120597708Y-86382546D01*
X120530746Y-86427289D01*
X120403591Y-86512251D01*
X120403589Y-86512253D01*
X120338047Y-86556047D01*
X120294253Y-86621589D01*
X112346843Y-94569000D01*
X112336017Y-94569000D01*
X111992365Y-94711345D01*
X111729345Y-94974365D01*
X111629000Y-95216620D01*
X111629000Y-93270694D01*
X111679000Y-93149983D01*
X111679000Y-92778017D01*
X111536655Y-92434365D01*
X111273635Y-92171345D01*
X110929983Y-92029000D01*
X110558017Y-92029000D01*
X110214365Y-92171345D01*
X109951345Y-92434365D01*
X109809000Y-92778017D01*
X109809000Y-93149983D01*
X109859000Y-93270694D01*
X109859000Y-93475428D01*
X109859001Y-93475433D01*
X109859000Y-111164839D01*
X109841663Y-111252000D01*
X109859000Y-111339161D01*
X109859000Y-111339164D01*
X109910348Y-111597309D01*
X110105951Y-111890049D01*
X110179847Y-111939425D01*
X111580577Y-113340156D01*
X111629951Y-113414049D01*
X111703844Y-113463423D01*
X111703845Y-113463424D01*
X111814880Y-113537615D01*
X111922690Y-113609652D01*
X112180835Y-113661000D01*
X112180839Y-113661000D01*
X112267999Y-113678337D01*
X112355159Y-113661000D01*
X128191859Y-113661000D01*
X127928466Y-114006127D01*
X127696632Y-114701021D01*
X127702386Y-115433545D01*
X127945106Y-116124712D01*
X128398621Y-116699993D01*
X128615453Y-116840000D01*
X108204212Y-116840000D01*
X108662046Y-116416783D01*
X109009770Y-115772336D01*
X109130000Y-115050000D01*
X109129725Y-115014973D01*
X108998164Y-114294614D01*
X108640360Y-113655709D01*
X108094894Y-113167149D01*
X107420583Y-112881615D01*
X106690138Y-112829897D01*
X105982323Y-113017571D01*
X105373460Y-113424400D01*
X105110000Y-113769616D01*
X105110000Y-109474000D01*
X106689908Y-109474000D01*
X106805161Y-110053418D01*
X107133375Y-110544625D01*
X107624582Y-110872839D01*
X108057744Y-110959000D01*
X108350256Y-110959000D01*
X108783418Y-110872839D01*
X109274625Y-110544625D01*
X109602839Y-110053418D01*
X109718092Y-109474000D01*
X109602839Y-108894582D01*
X109274625Y-108403375D01*
X109256381Y-108391184D01*
X109301765Y-108382157D01*
X109511809Y-108241809D01*
X109652157Y-108031765D01*
X109701440Y-107784000D01*
X109701440Y-106084000D01*
X109652157Y-105836235D01*
X109511809Y-105626191D01*
X109301765Y-105485843D01*
X109054000Y-105436560D01*
X107354000Y-105436560D01*
X107106235Y-105485843D01*
X106896191Y-105626191D01*
X106755843Y-105836235D01*
X106706560Y-106084000D01*
X106706560Y-107784000D01*
X106755843Y-108031765D01*
X106896191Y-108241809D01*
X107106235Y-108382157D01*
X107151619Y-108391184D01*
X107133375Y-108403375D01*
X106805161Y-108894582D01*
X106689908Y-109474000D01*
X105110000Y-109474000D01*
X105110000Y-100846890D01*
X106758524Y-100846890D01*
X106928355Y-101256924D01*
X107318642Y-101685183D01*
X107843108Y-101931486D01*
X108073000Y-101810819D01*
X108073000Y-100617000D01*
X108327000Y-100617000D01*
X108327000Y-101810819D01*
X108556892Y-101931486D01*
X109081358Y-101685183D01*
X109471645Y-101256924D01*
X109641476Y-100846890D01*
X109520155Y-100617000D01*
X108327000Y-100617000D01*
X108073000Y-100617000D01*
X106879845Y-100617000D01*
X106758524Y-100846890D01*
X105110000Y-100846890D01*
X105110000Y-95410000D01*
X106685908Y-95410000D01*
X106801161Y-95989418D01*
X107129375Y-96480625D01*
X107427761Y-96680000D01*
X107129375Y-96879375D01*
X106801161Y-97370582D01*
X106685908Y-97950000D01*
X106801161Y-98529418D01*
X107129375Y-99020625D01*
X107448478Y-99233843D01*
X107318642Y-99294817D01*
X106928355Y-99723076D01*
X106758524Y-100133110D01*
X106879845Y-100363000D01*
X108073000Y-100363000D01*
X108073000Y-100343000D01*
X108327000Y-100343000D01*
X108327000Y-100363000D01*
X109520155Y-100363000D01*
X109641476Y-100133110D01*
X109471645Y-99723076D01*
X109081358Y-99294817D01*
X108951522Y-99233843D01*
X109270625Y-99020625D01*
X109598839Y-98529418D01*
X109714092Y-97950000D01*
X109598839Y-97370582D01*
X109270625Y-96879375D01*
X108972239Y-96680000D01*
X109270625Y-96480625D01*
X109598839Y-95989418D01*
X109714092Y-95410000D01*
X109598839Y-94830582D01*
X109270625Y-94339375D01*
X109252381Y-94327184D01*
X109297765Y-94318157D01*
X109507809Y-94177809D01*
X109648157Y-93967765D01*
X109697440Y-93720000D01*
X109697440Y-92020000D01*
X109648157Y-91772235D01*
X109507809Y-91562191D01*
X109297765Y-91421843D01*
X109050000Y-91372560D01*
X107350000Y-91372560D01*
X107102235Y-91421843D01*
X106892191Y-91562191D01*
X106751843Y-91772235D01*
X106702560Y-92020000D01*
X106702560Y-93720000D01*
X106751843Y-93967765D01*
X106892191Y-94177809D01*
X107102235Y-94318157D01*
X107147619Y-94327184D01*
X107129375Y-94339375D01*
X106801161Y-94830582D01*
X106685908Y-95410000D01*
X105110000Y-95410000D01*
X105110000Y-83058000D01*
X106689908Y-83058000D01*
X106805161Y-83637418D01*
X107133375Y-84128625D01*
X107151619Y-84140816D01*
X107106235Y-84149843D01*
X106896191Y-84290191D01*
X106755843Y-84500235D01*
X106706560Y-84748000D01*
X106706560Y-86448000D01*
X106755843Y-86695765D01*
X106896191Y-86905809D01*
X107106235Y-87046157D01*
X107354000Y-87095440D01*
X109054000Y-87095440D01*
X109301765Y-87046157D01*
X109511809Y-86905809D01*
X109652157Y-86695765D01*
X109701440Y-86448000D01*
X109701440Y-84748000D01*
X109652157Y-84500235D01*
X109511809Y-84290191D01*
X109301765Y-84149843D01*
X109256381Y-84140816D01*
X109274625Y-84128625D01*
X109602839Y-83637418D01*
X109718092Y-83058000D01*
X109602839Y-82478582D01*
X109274625Y-81987375D01*
X108783418Y-81659161D01*
X108350256Y-81573000D01*
X108057744Y-81573000D01*
X107624582Y-81659161D01*
X107133375Y-81987375D01*
X106805161Y-82478582D01*
X106689908Y-83058000D01*
X105110000Y-83058000D01*
X105110000Y-81039017D01*
X130615000Y-81039017D01*
X130615000Y-81410983D01*
X130757345Y-81754635D01*
X131020365Y-82017655D01*
X131364017Y-82160000D01*
X131401710Y-82160000D01*
X131287345Y-82274365D01*
X131145000Y-82618017D01*
X131145000Y-82989983D01*
X131287345Y-83333635D01*
X131550365Y-83596655D01*
X131894017Y-83739000D01*
X131904843Y-83739000D01*
X133756251Y-85590408D01*
X133800047Y-85655953D01*
X134059708Y-85829454D01*
X134288684Y-85875000D01*
X134288688Y-85875000D01*
X134366000Y-85890378D01*
X134443312Y-85875000D01*
X139162710Y-85875000D01*
X139170365Y-85882655D01*
X139514017Y-86025000D01*
X139885983Y-86025000D01*
X140229635Y-85882655D01*
X140492655Y-85619635D01*
X140635000Y-85275983D01*
X140635000Y-84904017D01*
X140492655Y-84560365D01*
X140229635Y-84297345D01*
X139885983Y-84155000D01*
X139514017Y-84155000D01*
X139170365Y-84297345D01*
X139162710Y-84305000D01*
X134691157Y-84305000D01*
X133015000Y-82628843D01*
X133015000Y-82618017D01*
X132872655Y-82274365D01*
X132609635Y-82011345D01*
X132606388Y-82010000D01*
X138637240Y-82010000D01*
X138939017Y-82135000D01*
X139310983Y-82135000D01*
X139654635Y-81992655D01*
X139917655Y-81729635D01*
X140060000Y-81385983D01*
X140060000Y-81014017D01*
X139917655Y-80670365D01*
X139654635Y-80407345D01*
X139310983Y-80265000D01*
X138939017Y-80265000D01*
X138595365Y-80407345D01*
X138562710Y-80440000D01*
X132087290Y-80440000D01*
X132079635Y-80432345D01*
X131735983Y-80290000D01*
X131364017Y-80290000D01*
X131020365Y-80432345D01*
X130757345Y-80695365D01*
X130615000Y-81039017D01*
X105110000Y-81039017D01*
X105110000Y-79332552D01*
X105399182Y-79699377D01*
X106014360Y-80096593D01*
X106725036Y-80273126D01*
X107454578Y-80209940D01*
X108124321Y-79913850D01*
X108662046Y-79416783D01*
X109009770Y-78772336D01*
X109130000Y-78050000D01*
X109129725Y-78014973D01*
X108998164Y-77294614D01*
X108640360Y-76655709D01*
X108198560Y-76260000D01*
X128668023Y-76260000D01*
X128422890Y-76423793D01*
X128422890Y-76423793D01*
G37*
X128422890Y-76423793D02*
X127978466Y-77006127D01*
X127746632Y-77701021D01*
X127752386Y-78433545D01*
X127995106Y-79124712D01*
X128448621Y-79699993D01*
X129064029Y-80097357D01*
X129774971Y-80273956D01*
X130504786Y-80210747D01*
X131174778Y-79914547D01*
X131712704Y-79417293D01*
X131844992Y-79172119D01*
X140683000Y-79172119D01*
X140683000Y-79727881D01*
X140895680Y-80241337D01*
X141288663Y-80634320D01*
X141495513Y-80720000D01*
X141288663Y-80805680D01*
X140895680Y-81198663D01*
X140683000Y-81712119D01*
X140683000Y-82267881D01*
X140895680Y-82781337D01*
X141288663Y-83174320D01*
X141802119Y-83387000D01*
X142357881Y-83387000D01*
X142871337Y-83174320D01*
X143264320Y-82781337D01*
X143350000Y-82574487D01*
X143435680Y-82781337D01*
X143828663Y-83174320D01*
X144342119Y-83387000D01*
X144897881Y-83387000D01*
X145411337Y-83174320D01*
X145804320Y-82781337D01*
X145890000Y-82574487D01*
X145975680Y-82781337D01*
X146368663Y-83174320D01*
X146882119Y-83387000D01*
X147437881Y-83387000D01*
X147951337Y-83174320D01*
X148344320Y-82781337D01*
X148430000Y-82574487D01*
X148515680Y-82781337D01*
X148908663Y-83174320D01*
X149422119Y-83387000D01*
X149977881Y-83387000D01*
X150491337Y-83174320D01*
X150884320Y-82781337D01*
X151097000Y-82267881D01*
X151097000Y-81712119D01*
X150884320Y-81198663D01*
X150532657Y-80847000D01*
X150588310Y-80847000D01*
X150821699Y-80750327D01*
X151000327Y-80571698D01*
X151097000Y-80338309D01*
X151097000Y-79735750D01*
X150938250Y-79577000D01*
X149827000Y-79577000D01*
X149827000Y-79597000D01*
X149573000Y-79597000D01*
X149573000Y-79577000D01*
X149553000Y-79577000D01*
X149553000Y-79323000D01*
X149573000Y-79323000D01*
X149573000Y-78211750D01*
X149827000Y-78211750D01*
X149827000Y-79323000D01*
X150938250Y-79323000D01*
X151097000Y-79164250D01*
X151097000Y-78930996D01*
X157169000Y-78930996D01*
X157169000Y-79661004D01*
X157448362Y-80335444D01*
X157908918Y-80796000D01*
X157448362Y-81256556D01*
X157169000Y-81930996D01*
X157169000Y-82661004D01*
X157448362Y-83335444D01*
X157964556Y-83851638D01*
X158638996Y-84131000D01*
X159369004Y-84131000D01*
X160043444Y-83851638D01*
X160559638Y-83335444D01*
X160839000Y-82661004D01*
X160839000Y-81930996D01*
X160559638Y-81256556D01*
X160099082Y-80796000D01*
X160559638Y-80335444D01*
X160839000Y-79661004D01*
X160839000Y-78930996D01*
X160559638Y-78256556D01*
X160451082Y-78148000D01*
X164368560Y-78148000D01*
X164368560Y-80348000D01*
X164417843Y-80595765D01*
X164558191Y-80805809D01*
X164768235Y-80946157D01*
X165016000Y-80995440D01*
X167216000Y-80995440D01*
X167463765Y-80946157D01*
X167673809Y-80805809D01*
X167814157Y-80595765D01*
X167863440Y-80348000D01*
X167863440Y-79644122D01*
X174586825Y-79644122D01*
X174801466Y-80162332D01*
X175263608Y-80657012D01*
X175879877Y-80937183D01*
X176149000Y-80819604D01*
X176149000Y-79375000D01*
X176403000Y-79375000D01*
X176403000Y-80819604D01*
X176672123Y-80937183D01*
X177288392Y-80657012D01*
X177750534Y-80162332D01*
X177965175Y-79644122D01*
X177847125Y-79375000D01*
X176403000Y-79375000D01*
X176149000Y-79375000D01*
X174704875Y-79375000D01*
X174586825Y-79644122D01*
X167863440Y-79644122D01*
X167863440Y-78851878D01*
X174586825Y-78851878D01*
X174704875Y-79121000D01*
X176149000Y-79121000D01*
X176149000Y-77676396D01*
X176403000Y-77676396D01*
X176403000Y-79121000D01*
X177847125Y-79121000D01*
X177965175Y-78851878D01*
X177750534Y-78333668D01*
X177288392Y-77838988D01*
X176672123Y-77558817D01*
X176403000Y-77676396D01*
X176149000Y-77676396D01*
X175879877Y-77558817D01*
X175263608Y-77838988D01*
X174801466Y-78333668D01*
X174586825Y-78851878D01*
X167863440Y-78851878D01*
X167863440Y-78148000D01*
X167814157Y-77900235D01*
X167673809Y-77690191D01*
X167463765Y-77549843D01*
X167216000Y-77500560D01*
X165016000Y-77500560D01*
X164768235Y-77549843D01*
X164558191Y-77690191D01*
X164417843Y-77900235D01*
X164368560Y-78148000D01*
X160451082Y-78148000D01*
X160043444Y-77740362D01*
X159369004Y-77461000D01*
X158638996Y-77461000D01*
X157964556Y-77740362D01*
X157448362Y-78256556D01*
X157169000Y-78930996D01*
X151097000Y-78930996D01*
X151097000Y-78561691D01*
X151000327Y-78328302D01*
X150821699Y-78149673D01*
X150588310Y-78053000D01*
X149985750Y-78053000D01*
X149827000Y-78211750D01*
X149573000Y-78211750D01*
X149414250Y-78053000D01*
X148811690Y-78053000D01*
X148578301Y-78149673D01*
X148399673Y-78328302D01*
X148303000Y-78561691D01*
X148303000Y-78617343D01*
X147951337Y-78265680D01*
X147437881Y-78053000D01*
X146882119Y-78053000D01*
X146368663Y-78265680D01*
X145975680Y-78658663D01*
X145890000Y-78865513D01*
X145804320Y-78658663D01*
X145411337Y-78265680D01*
X144897881Y-78053000D01*
X144342119Y-78053000D01*
X143828663Y-78265680D01*
X143435680Y-78658663D01*
X143350000Y-78865513D01*
X143264320Y-78658663D01*
X142871337Y-78265680D01*
X142357881Y-78053000D01*
X141802119Y-78053000D01*
X141288663Y-78265680D01*
X140895680Y-78658663D01*
X140683000Y-79172119D01*
X131844992Y-79172119D01*
X132060558Y-78772606D01*
X132180833Y-78050000D01*
X132180558Y-78014960D01*
X132048948Y-77294332D01*
X131691010Y-76655188D01*
X131249792Y-76260000D01*
X180619502Y-76260000D01*
X180373460Y-76424400D01*
X179929203Y-77006517D01*
X179697455Y-77701151D01*
X179703206Y-78433402D01*
X179945836Y-79124311D01*
X180399182Y-79699377D01*
X181014360Y-80096593D01*
X181725036Y-80273126D01*
X182454578Y-80209940D01*
X183124321Y-79913850D01*
X183662046Y-79416783D01*
X183690000Y-79364975D01*
X183690001Y-113744349D01*
X183640360Y-113655709D01*
X183094894Y-113167149D01*
X182420583Y-112881615D01*
X181690138Y-112829897D01*
X180982323Y-113017571D01*
X180373460Y-113424400D01*
X179929203Y-114006517D01*
X179697455Y-114701151D01*
X179703206Y-115433402D01*
X179945836Y-116124311D01*
X180399182Y-116699377D01*
X180616968Y-116840000D01*
X131205422Y-116840000D01*
X131662704Y-116417293D01*
X132010558Y-115772606D01*
X132130833Y-115050000D01*
X132130558Y-115014960D01*
X131998948Y-114294332D01*
X131644265Y-113661000D01*
X147267306Y-113661000D01*
X147388017Y-113711000D01*
X147759983Y-113711000D01*
X148103635Y-113568655D01*
X148366655Y-113305635D01*
X148509000Y-112961983D01*
X148509000Y-112590017D01*
X148366655Y-112246365D01*
X148103635Y-111983345D01*
X147759983Y-111841000D01*
X147388017Y-111841000D01*
X147267306Y-111891000D01*
X112634579Y-111891000D01*
X111629000Y-110885422D01*
X111629000Y-110124996D01*
X158185000Y-110124996D01*
X158185000Y-110855004D01*
X158464362Y-111529444D01*
X158924918Y-111990000D01*
X158464362Y-112450556D01*
X158185000Y-113124996D01*
X158185000Y-113855004D01*
X158464362Y-114529444D01*
X158980556Y-115045638D01*
X159654996Y-115325000D01*
X160385004Y-115325000D01*
X161059444Y-115045638D01*
X161575638Y-114529444D01*
X161855000Y-113855004D01*
X161855000Y-113124996D01*
X161575638Y-112450556D01*
X161563082Y-112438000D01*
X165892560Y-112438000D01*
X165892560Y-114638000D01*
X165941843Y-114885765D01*
X166082191Y-115095809D01*
X166292235Y-115236157D01*
X166540000Y-115285440D01*
X168740000Y-115285440D01*
X168987765Y-115236157D01*
X169197809Y-115095809D01*
X169338157Y-114885765D01*
X169387440Y-114638000D01*
X169387440Y-113934122D01*
X176110825Y-113934122D01*
X176325466Y-114452332D01*
X176787608Y-114947012D01*
X177403877Y-115227183D01*
X177673000Y-115109604D01*
X177673000Y-113665000D01*
X177927000Y-113665000D01*
X177927000Y-115109604D01*
X178196123Y-115227183D01*
X178812392Y-114947012D01*
X179274534Y-114452332D01*
X179489175Y-113934122D01*
X179371125Y-113665000D01*
X177927000Y-113665000D01*
X177673000Y-113665000D01*
X176228875Y-113665000D01*
X176110825Y-113934122D01*
X169387440Y-113934122D01*
X169387440Y-113141878D01*
X176110825Y-113141878D01*
X176228875Y-113411000D01*
X177673000Y-113411000D01*
X177673000Y-111966396D01*
X177927000Y-111966396D01*
X177927000Y-113411000D01*
X179371125Y-113411000D01*
X179489175Y-113141878D01*
X179274534Y-112623668D01*
X178812392Y-112128988D01*
X178196123Y-111848817D01*
X177927000Y-111966396D01*
X177673000Y-111966396D01*
X177403877Y-111848817D01*
X176787608Y-112128988D01*
X176325466Y-112623668D01*
X176110825Y-113141878D01*
X169387440Y-113141878D01*
X169387440Y-112438000D01*
X169338157Y-112190235D01*
X169197809Y-111980191D01*
X168987765Y-111839843D01*
X168740000Y-111790560D01*
X166540000Y-111790560D01*
X166292235Y-111839843D01*
X166082191Y-111980191D01*
X165941843Y-112190235D01*
X165892560Y-112438000D01*
X161563082Y-112438000D01*
X161115082Y-111990000D01*
X161575638Y-111529444D01*
X161855000Y-110855004D01*
X161855000Y-110124996D01*
X161575638Y-109450556D01*
X161059444Y-108934362D01*
X160385004Y-108655000D01*
X159654996Y-108655000D01*
X158980556Y-108934362D01*
X158464362Y-109450556D01*
X158185000Y-110124996D01*
X111629000Y-110124996D01*
X111629000Y-106240017D01*
X173563000Y-106240017D01*
X173563000Y-106611983D01*
X173705345Y-106955635D01*
X173968365Y-107218655D01*
X174312017Y-107361000D01*
X174683983Y-107361000D01*
X174804694Y-107311000D01*
X178509306Y-107311000D01*
X178630017Y-107361000D01*
X179001983Y-107361000D01*
X179345635Y-107218655D01*
X179608655Y-106955635D01*
X179751000Y-106611983D01*
X179751000Y-106240017D01*
X179608655Y-105896365D01*
X179345635Y-105633345D01*
X179001983Y-105491000D01*
X178630017Y-105491000D01*
X178509306Y-105541000D01*
X174804694Y-105541000D01*
X174683983Y-105491000D01*
X174312017Y-105491000D01*
X173968365Y-105633345D01*
X173705345Y-105896365D01*
X173563000Y-106240017D01*
X111629000Y-106240017D01*
X111629000Y-103848000D01*
X158572560Y-103848000D01*
X158572560Y-105448000D01*
X158621843Y-105695765D01*
X158762191Y-105905809D01*
X158972235Y-106046157D01*
X159220000Y-106095440D01*
X160820000Y-106095440D01*
X161067765Y-106046157D01*
X161277809Y-105905809D01*
X161418157Y-105695765D01*
X161467440Y-105448000D01*
X161467440Y-103848000D01*
X161418157Y-103600235D01*
X161277809Y-103390191D01*
X161067765Y-103249843D01*
X160833813Y-103203307D01*
X160848139Y-103155745D01*
X160020000Y-102327605D01*
X159191861Y-103155745D01*
X159206187Y-103203307D01*
X158972235Y-103249843D01*
X158762191Y-103390191D01*
X158621843Y-103600235D01*
X158572560Y-103848000D01*
X111629000Y-103848000D01*
X111629000Y-101931223D01*
X158573035Y-101931223D01*
X158600222Y-102501454D01*
X158766136Y-102902005D01*
X159012255Y-102976139D01*
X159840395Y-102148000D01*
X160199605Y-102148000D01*
X161027745Y-102976139D01*
X161273864Y-102902005D01*
X161466965Y-102364777D01*
X161439778Y-101794546D01*
X161273864Y-101393995D01*
X161027745Y-101319861D01*
X160199605Y-102148000D01*
X159840395Y-102148000D01*
X159012255Y-101319861D01*
X158766136Y-101393995D01*
X158573035Y-101931223D01*
X111629000Y-101931223D01*
X111629000Y-101140255D01*
X159191861Y-101140255D01*
X160020000Y-101968395D01*
X160848139Y-101140255D01*
X160774005Y-100894136D01*
X160236777Y-100701035D01*
X159666546Y-100728222D01*
X159265995Y-100894136D01*
X159191861Y-101140255D01*
X111629000Y-101140255D01*
X111629000Y-98331381D01*
X111729345Y-98573636D01*
X111992365Y-98836656D01*
X112336017Y-98979001D01*
X112707983Y-98979001D01*
X113051635Y-98836656D01*
X113314655Y-98573636D01*
X113457000Y-98229984D01*
X113457000Y-98219158D01*
X118136141Y-93540017D01*
X123271000Y-93540017D01*
X123271000Y-93911983D01*
X123413345Y-94255635D01*
X123676365Y-94518655D01*
X123797078Y-94568656D01*
X128598577Y-99370156D01*
X128647951Y-99444049D01*
X128721844Y-99493423D01*
X128721845Y-99493424D01*
X128879334Y-99598655D01*
X128940690Y-99639652D01*
X129198835Y-99691000D01*
X129198839Y-99691000D01*
X129286000Y-99708337D01*
X129373161Y-99691000D01*
X132281306Y-99691000D01*
X132402017Y-99741000D01*
X132773983Y-99741000D01*
X133117635Y-99598655D01*
X133380655Y-99335635D01*
X133523000Y-98991983D01*
X133523000Y-98620017D01*
X133458376Y-98464000D01*
X139218560Y-98464000D01*
X139218560Y-100164000D01*
X139267843Y-100411765D01*
X139408191Y-100621809D01*
X139618235Y-100762157D01*
X139866000Y-100811440D01*
X141566000Y-100811440D01*
X141813765Y-100762157D01*
X142023809Y-100621809D01*
X142164157Y-100411765D01*
X142173184Y-100366381D01*
X142185375Y-100384625D01*
X142676582Y-100712839D01*
X143109744Y-100799000D01*
X143402256Y-100799000D01*
X143835418Y-100712839D01*
X144326625Y-100384625D01*
X144654839Y-99893418D01*
X144770092Y-99314000D01*
X144654839Y-98734582D01*
X144326625Y-98243375D01*
X143835418Y-97915161D01*
X143402256Y-97829000D01*
X143109744Y-97829000D01*
X142676582Y-97915161D01*
X142185375Y-98243375D01*
X142173184Y-98261619D01*
X142164157Y-98216235D01*
X142023809Y-98006191D01*
X141813765Y-97865843D01*
X141566000Y-97816560D01*
X139866000Y-97816560D01*
X139618235Y-97865843D01*
X139408191Y-98006191D01*
X139267843Y-98216235D01*
X139218560Y-98464000D01*
X133458376Y-98464000D01*
X133380655Y-98276365D01*
X133117635Y-98013345D01*
X132773983Y-97871000D01*
X132402017Y-97871000D01*
X132281306Y-97921000D01*
X129652579Y-97921000D01*
X125743329Y-94011750D01*
X139231000Y-94011750D01*
X139231000Y-94702309D01*
X139327673Y-94935698D01*
X139506301Y-95114327D01*
X139739690Y-95211000D01*
X140430250Y-95211000D01*
X140589000Y-95052250D01*
X140589000Y-93853000D01*
X139389750Y-93853000D01*
X139231000Y-94011750D01*
X125743329Y-94011750D01*
X125048656Y-93317078D01*
X124998655Y-93196365D01*
X124735635Y-92933345D01*
X124391983Y-92791000D01*
X124020017Y-92791000D01*
X123676365Y-92933345D01*
X123413345Y-93196365D01*
X123271000Y-93540017D01*
X118136141Y-93540017D01*
X122499159Y-89177000D01*
X131796710Y-89177000D01*
X131804365Y-89184655D01*
X132148017Y-89327000D01*
X132519983Y-89327000D01*
X132863635Y-89184655D01*
X133126655Y-88921635D01*
X133269000Y-88577983D01*
X133269000Y-88460019D01*
X137495000Y-88460019D01*
X137495000Y-88831985D01*
X137637345Y-89175637D01*
X137900365Y-89438657D01*
X138244017Y-89581002D01*
X138254855Y-89581002D01*
X140289010Y-91615158D01*
X140289010Y-91625983D01*
X140431355Y-91969635D01*
X140694375Y-92232655D01*
X140714522Y-92241000D01*
X140588998Y-92241000D01*
X140588998Y-92399748D01*
X140430250Y-92241000D01*
X139739690Y-92241000D01*
X139506301Y-92337673D01*
X139327673Y-92516302D01*
X139231000Y-92749691D01*
X139231000Y-93440250D01*
X139389750Y-93599000D01*
X140589000Y-93599000D01*
X140589000Y-93579000D01*
X140843000Y-93579000D01*
X140843000Y-93599000D01*
X140863000Y-93599000D01*
X140863000Y-93853000D01*
X140843000Y-93853000D01*
X140843000Y-95052250D01*
X141001750Y-95211000D01*
X141692310Y-95211000D01*
X141925699Y-95114327D01*
X142104327Y-94935698D01*
X142170904Y-94774967D01*
X142185375Y-94796625D01*
X142676582Y-95124839D01*
X143109744Y-95211000D01*
X143402256Y-95211000D01*
X143835418Y-95124839D01*
X144326625Y-94796625D01*
X144526000Y-94498239D01*
X144725375Y-94796625D01*
X145216582Y-95124839D01*
X145649744Y-95211000D01*
X145942256Y-95211000D01*
X146375418Y-95124839D01*
X146866625Y-94796625D01*
X147066000Y-94498239D01*
X147265375Y-94796625D01*
X147756582Y-95124839D01*
X148189744Y-95211000D01*
X148482256Y-95211000D01*
X148915418Y-95124839D01*
X149406625Y-94796625D01*
X149734839Y-94305418D01*
X149850092Y-93726000D01*
X152917908Y-93726000D01*
X153033161Y-94305418D01*
X153361375Y-94796625D01*
X153659761Y-94996000D01*
X153361375Y-95195375D01*
X153033161Y-95686582D01*
X152917908Y-96266000D01*
X153033161Y-96845418D01*
X153361375Y-97336625D01*
X153379619Y-97348816D01*
X153334235Y-97357843D01*
X153124191Y-97498191D01*
X152983843Y-97708235D01*
X152934560Y-97956000D01*
X152934560Y-99656000D01*
X152983843Y-99903765D01*
X153124191Y-100113809D01*
X153334235Y-100254157D01*
X153582000Y-100303440D01*
X155282000Y-100303440D01*
X155529765Y-100254157D01*
X155739809Y-100113809D01*
X155836261Y-99969459D01*
X177410146Y-99969459D01*
X177545504Y-100267455D01*
X178263880Y-100544066D01*
X179033427Y-100524710D01*
X179654496Y-100267455D01*
X179789854Y-99969459D01*
X178600000Y-98779605D01*
X177410146Y-99969459D01*
X155836261Y-99969459D01*
X155880157Y-99903765D01*
X155929440Y-99656000D01*
X155929440Y-99041745D01*
X165033861Y-99041745D01*
X165107995Y-99287864D01*
X165645223Y-99480965D01*
X166215454Y-99453778D01*
X166616005Y-99287864D01*
X166690139Y-99041745D01*
X165862000Y-98213605D01*
X165033861Y-99041745D01*
X155929440Y-99041745D01*
X155929440Y-97956000D01*
X155901836Y-97817223D01*
X164415035Y-97817223D01*
X164442222Y-98387454D01*
X164608136Y-98788005D01*
X164854255Y-98862139D01*
X165682395Y-98034000D01*
X166041605Y-98034000D01*
X166869745Y-98862139D01*
X167115864Y-98788005D01*
X167304255Y-98263880D01*
X176655934Y-98263880D01*
X176675290Y-99033427D01*
X176932545Y-99654496D01*
X177230541Y-99789854D01*
X178420395Y-98600000D01*
X178779605Y-98600000D01*
X179969459Y-99789854D01*
X180267455Y-99654496D01*
X180544066Y-98936120D01*
X180524710Y-98166573D01*
X180267455Y-97545504D01*
X179969459Y-97410146D01*
X178779605Y-98600000D01*
X178420395Y-98600000D01*
X177230541Y-97410146D01*
X176932545Y-97545504D01*
X176655934Y-98263880D01*
X167304255Y-98263880D01*
X167308965Y-98250777D01*
X167281778Y-97680546D01*
X167115864Y-97279995D01*
X166951681Y-97230541D01*
X177410146Y-97230541D01*
X178600000Y-98420395D01*
X179789854Y-97230541D01*
X179654496Y-96932545D01*
X178936120Y-96655934D01*
X178166573Y-96675290D01*
X177545504Y-96932545D01*
X177410146Y-97230541D01*
X166951681Y-97230541D01*
X166869745Y-97205861D01*
X166041605Y-98034000D01*
X165682395Y-98034000D01*
X164854255Y-97205861D01*
X164608136Y-97279995D01*
X164415035Y-97817223D01*
X155901836Y-97817223D01*
X155880157Y-97708235D01*
X155739809Y-97498191D01*
X155529765Y-97357843D01*
X155484381Y-97348816D01*
X155502625Y-97336625D01*
X155710007Y-97026255D01*
X165033861Y-97026255D01*
X165862000Y-97854395D01*
X166690139Y-97026255D01*
X166616005Y-96780136D01*
X166078777Y-96587035D01*
X165508546Y-96614222D01*
X165107995Y-96780136D01*
X165033861Y-97026255D01*
X155710007Y-97026255D01*
X155830839Y-96845418D01*
X155946092Y-96266000D01*
X155830839Y-95686582D01*
X155502625Y-95195375D01*
X155204239Y-94996000D01*
X155502625Y-94796625D01*
X155830839Y-94305418D01*
X155946092Y-93726000D01*
X155888010Y-93434000D01*
X164414560Y-93434000D01*
X164414560Y-95034000D01*
X164463843Y-95281765D01*
X164604191Y-95491809D01*
X164814235Y-95632157D01*
X165062000Y-95681440D01*
X166662000Y-95681440D01*
X166909765Y-95632157D01*
X167119809Y-95491809D01*
X167260157Y-95281765D01*
X167309440Y-95034000D01*
X167309440Y-93434000D01*
X167260157Y-93186235D01*
X167119809Y-92976191D01*
X166909765Y-92835843D01*
X166662000Y-92786560D01*
X165062000Y-92786560D01*
X164814235Y-92835843D01*
X164604191Y-92976191D01*
X164463843Y-93186235D01*
X164414560Y-93434000D01*
X155888010Y-93434000D01*
X155830839Y-93146582D01*
X155502625Y-92655375D01*
X155011418Y-92327161D01*
X154874870Y-92300000D01*
X176652560Y-92300000D01*
X176652560Y-94900000D01*
X176701843Y-95147765D01*
X176842191Y-95357809D01*
X177052235Y-95498157D01*
X177300000Y-95547440D01*
X179900000Y-95547440D01*
X180147765Y-95498157D01*
X180357809Y-95357809D01*
X180498157Y-95147765D01*
X180547440Y-94900000D01*
X180547440Y-92300000D01*
X180498157Y-92052235D01*
X180357809Y-91842191D01*
X180147765Y-91701843D01*
X179900000Y-91652560D01*
X177300000Y-91652560D01*
X177052235Y-91701843D01*
X176842191Y-91842191D01*
X176701843Y-92052235D01*
X176652560Y-92300000D01*
X154874870Y-92300000D01*
X154578256Y-92241000D01*
X154285744Y-92241000D01*
X153852582Y-92327161D01*
X153361375Y-92655375D01*
X153033161Y-93146582D01*
X152917908Y-93726000D01*
X149850092Y-93726000D01*
X149734839Y-93146582D01*
X149406625Y-92655375D01*
X148915418Y-92327161D01*
X148482256Y-92241000D01*
X148189744Y-92241000D01*
X147756582Y-92327161D01*
X147265375Y-92655375D01*
X147066000Y-92953761D01*
X146866625Y-92655375D01*
X146375418Y-92327161D01*
X145942256Y-92241000D01*
X145649744Y-92241000D01*
X145216582Y-92327161D01*
X144725375Y-92655375D01*
X144526000Y-92953761D01*
X144326625Y-92655375D01*
X143835418Y-92327161D01*
X143402256Y-92241000D01*
X143109744Y-92241000D01*
X142676582Y-92327161D01*
X142185375Y-92655375D01*
X142170904Y-92677033D01*
X142104327Y-92516302D01*
X141925699Y-92337673D01*
X141712904Y-92249530D01*
X141753645Y-92232655D01*
X142016665Y-91969635D01*
X142159010Y-91625983D01*
X142159010Y-91254017D01*
X142110849Y-91137745D01*
X158175861Y-91137745D01*
X158249995Y-91383864D01*
X158787223Y-91576965D01*
X159357454Y-91549778D01*
X159758005Y-91383864D01*
X159832139Y-91137745D01*
X159004000Y-90309605D01*
X158175861Y-91137745D01*
X142110849Y-91137745D01*
X142016665Y-90910365D01*
X141753645Y-90647345D01*
X141409993Y-90505000D01*
X141399168Y-90505000D01*
X140079918Y-89185750D01*
X147713000Y-89185750D01*
X147713000Y-89551309D01*
X147809673Y-89784698D01*
X147988301Y-89963327D01*
X148221690Y-90060000D01*
X148812250Y-90060000D01*
X148971000Y-89901250D01*
X148971000Y-89027000D01*
X149225000Y-89027000D01*
X149225000Y-89901250D01*
X149383750Y-90060000D01*
X149974310Y-90060000D01*
X150207699Y-89963327D01*
X150257802Y-89913223D01*
X157557035Y-89913223D01*
X157584222Y-90483454D01*
X157750136Y-90884005D01*
X157996255Y-90958139D01*
X158824395Y-90130000D01*
X159183605Y-90130000D01*
X160011745Y-90958139D01*
X160257864Y-90884005D01*
X160450965Y-90346777D01*
X160423778Y-89776546D01*
X160257864Y-89375995D01*
X160011745Y-89301861D01*
X159183605Y-90130000D01*
X158824395Y-90130000D01*
X157996255Y-89301861D01*
X157750136Y-89375995D01*
X157557035Y-89913223D01*
X150257802Y-89913223D01*
X150386327Y-89784698D01*
X150483000Y-89551309D01*
X150483000Y-89185750D01*
X150324250Y-89027000D01*
X149225000Y-89027000D01*
X148971000Y-89027000D01*
X147871750Y-89027000D01*
X147713000Y-89185750D01*
X140079918Y-89185750D01*
X139365000Y-88470833D01*
X139365000Y-88460019D01*
X139222655Y-88116367D01*
X138959635Y-87853347D01*
X138615983Y-87711002D01*
X138244017Y-87711002D01*
X137900365Y-87853347D01*
X137637345Y-88116367D01*
X137495000Y-88460019D01*
X133269000Y-88460019D01*
X133269000Y-88206017D01*
X133126655Y-87862365D01*
X133021290Y-87757000D01*
X133126655Y-87651635D01*
X133269000Y-87307983D01*
X133269000Y-86936017D01*
X133126655Y-86592365D01*
X132894290Y-86360000D01*
X147690275Y-86360000D01*
X147780305Y-86812609D01*
X147902174Y-86995000D01*
X147780305Y-87177391D01*
X147690275Y-87630000D01*
X147780305Y-88082609D01*
X147781224Y-88083984D01*
X147713000Y-88248691D01*
X147713000Y-88614250D01*
X147871750Y-88773000D01*
X148673290Y-88773000D01*
X148758754Y-88790000D01*
X149437246Y-88790000D01*
X149522710Y-88773000D01*
X150324250Y-88773000D01*
X150483000Y-88614250D01*
X150483000Y-88248691D01*
X150414776Y-88083984D01*
X150415695Y-88082609D01*
X150505725Y-87630000D01*
X150415695Y-87177391D01*
X150293826Y-86995000D01*
X150404074Y-86830000D01*
X157556560Y-86830000D01*
X157556560Y-88430000D01*
X157605843Y-88677765D01*
X157746191Y-88887809D01*
X157956235Y-89028157D01*
X158190187Y-89074693D01*
X158175861Y-89122255D01*
X159004000Y-89950395D01*
X159832139Y-89122255D01*
X159817813Y-89074693D01*
X160051765Y-89028157D01*
X160261809Y-88887809D01*
X160402157Y-88677765D01*
X160451440Y-88430000D01*
X160451440Y-86830000D01*
X160402157Y-86582235D01*
X160261809Y-86372191D01*
X160051765Y-86231843D01*
X159804000Y-86182560D01*
X158204000Y-86182560D01*
X157956235Y-86231843D01*
X157746191Y-86372191D01*
X157605843Y-86582235D01*
X157556560Y-86830000D01*
X150404074Y-86830000D01*
X150415695Y-86812609D01*
X150505725Y-86360000D01*
X150415695Y-85907391D01*
X150254415Y-85666017D01*
X166959000Y-85666017D01*
X166959000Y-86037983D01*
X167101345Y-86381635D01*
X167364365Y-86644655D01*
X167485078Y-86694656D01*
X167714575Y-86924153D01*
X167763951Y-86998049D01*
X168056690Y-87193652D01*
X168314835Y-87245000D01*
X168314839Y-87245000D01*
X168401999Y-87262337D01*
X168489159Y-87245000D01*
X172413306Y-87245000D01*
X172534017Y-87295000D01*
X172905983Y-87295000D01*
X173249635Y-87152655D01*
X173512655Y-86889635D01*
X173655000Y-86545983D01*
X173655000Y-86174017D01*
X173512655Y-85830365D01*
X173249635Y-85567345D01*
X172905983Y-85425000D01*
X172534017Y-85425000D01*
X172413306Y-85475000D01*
X168768578Y-85475000D01*
X168736656Y-85443078D01*
X168686655Y-85322365D01*
X168423635Y-85059345D01*
X168079983Y-84917000D01*
X167708017Y-84917000D01*
X167364365Y-85059345D01*
X167101345Y-85322365D01*
X166959000Y-85666017D01*
X150254415Y-85666017D01*
X150159313Y-85523687D01*
X149775609Y-85267305D01*
X149437246Y-85200000D01*
X148758754Y-85200000D01*
X148420391Y-85267305D01*
X148036687Y-85523687D01*
X147780305Y-85907391D01*
X147690275Y-86360000D01*
X132894290Y-86360000D01*
X132863635Y-86329345D01*
X132519983Y-86187000D01*
X132148017Y-86187000D01*
X131804365Y-86329345D01*
X131796710Y-86337000D01*
X120981310Y-86337000D01*
X120903999Y-86321622D01*
X120826688Y-86337000D01*
X120826684Y-86337000D01*
X120597708Y-86382546D01*
X120530746Y-86427289D01*
X120403591Y-86512251D01*
X120403589Y-86512253D01*
X120338047Y-86556047D01*
X120294253Y-86621589D01*
X112346843Y-94569000D01*
X112336017Y-94569000D01*
X111992365Y-94711345D01*
X111729345Y-94974365D01*
X111629000Y-95216620D01*
X111629000Y-93270694D01*
X111679000Y-93149983D01*
X111679000Y-92778017D01*
X111536655Y-92434365D01*
X111273635Y-92171345D01*
X110929983Y-92029000D01*
X110558017Y-92029000D01*
X110214365Y-92171345D01*
X109951345Y-92434365D01*
X109809000Y-92778017D01*
X109809000Y-93149983D01*
X109859000Y-93270694D01*
X109859000Y-93475428D01*
X109859001Y-93475433D01*
X109859000Y-111164839D01*
X109841663Y-111252000D01*
X109859000Y-111339161D01*
X109859000Y-111339164D01*
X109910348Y-111597309D01*
X110105951Y-111890049D01*
X110179847Y-111939425D01*
X111580577Y-113340156D01*
X111629951Y-113414049D01*
X111703844Y-113463423D01*
X111703845Y-113463424D01*
X111814880Y-113537615D01*
X111922690Y-113609652D01*
X112180835Y-113661000D01*
X112180839Y-113661000D01*
X112267999Y-113678337D01*
X112355159Y-113661000D01*
X128191859Y-113661000D01*
X127928466Y-114006127D01*
X127696632Y-114701021D01*
X127702386Y-115433545D01*
X127945106Y-116124712D01*
X128398621Y-116699993D01*
X128615453Y-116840000D01*
X108204212Y-116840000D01*
X108662046Y-116416783D01*
X109009770Y-115772336D01*
X109130000Y-115050000D01*
X109129725Y-115014973D01*
X108998164Y-114294614D01*
X108640360Y-113655709D01*
X108094894Y-113167149D01*
X107420583Y-112881615D01*
X106690138Y-112829897D01*
X105982323Y-113017571D01*
X105373460Y-113424400D01*
X105110000Y-113769616D01*
X105110000Y-109474000D01*
X106689908Y-109474000D01*
X106805161Y-110053418D01*
X107133375Y-110544625D01*
X107624582Y-110872839D01*
X108057744Y-110959000D01*
X108350256Y-110959000D01*
X108783418Y-110872839D01*
X109274625Y-110544625D01*
X109602839Y-110053418D01*
X109718092Y-109474000D01*
X109602839Y-108894582D01*
X109274625Y-108403375D01*
X109256381Y-108391184D01*
X109301765Y-108382157D01*
X109511809Y-108241809D01*
X109652157Y-108031765D01*
X109701440Y-107784000D01*
X109701440Y-106084000D01*
X109652157Y-105836235D01*
X109511809Y-105626191D01*
X109301765Y-105485843D01*
X109054000Y-105436560D01*
X107354000Y-105436560D01*
X107106235Y-105485843D01*
X106896191Y-105626191D01*
X106755843Y-105836235D01*
X106706560Y-106084000D01*
X106706560Y-107784000D01*
X106755843Y-108031765D01*
X106896191Y-108241809D01*
X107106235Y-108382157D01*
X107151619Y-108391184D01*
X107133375Y-108403375D01*
X106805161Y-108894582D01*
X106689908Y-109474000D01*
X105110000Y-109474000D01*
X105110000Y-100846890D01*
X106758524Y-100846890D01*
X106928355Y-101256924D01*
X107318642Y-101685183D01*
X107843108Y-101931486D01*
X108073000Y-101810819D01*
X108073000Y-100617000D01*
X108327000Y-100617000D01*
X108327000Y-101810819D01*
X108556892Y-101931486D01*
X109081358Y-101685183D01*
X109471645Y-101256924D01*
X109641476Y-100846890D01*
X109520155Y-100617000D01*
X108327000Y-100617000D01*
X108073000Y-100617000D01*
X106879845Y-100617000D01*
X106758524Y-100846890D01*
X105110000Y-100846890D01*
X105110000Y-95410000D01*
X106685908Y-95410000D01*
X106801161Y-95989418D01*
X107129375Y-96480625D01*
X107427761Y-96680000D01*
X107129375Y-96879375D01*
X106801161Y-97370582D01*
X106685908Y-97950000D01*
X106801161Y-98529418D01*
X107129375Y-99020625D01*
X107448478Y-99233843D01*
X107318642Y-99294817D01*
X106928355Y-99723076D01*
X106758524Y-100133110D01*
X106879845Y-100363000D01*
X108073000Y-100363000D01*
X108073000Y-100343000D01*
X108327000Y-100343000D01*
X108327000Y-100363000D01*
X109520155Y-100363000D01*
X109641476Y-100133110D01*
X109471645Y-99723076D01*
X109081358Y-99294817D01*
X108951522Y-99233843D01*
X109270625Y-99020625D01*
X109598839Y-98529418D01*
X109714092Y-97950000D01*
X109598839Y-97370582D01*
X109270625Y-96879375D01*
X108972239Y-96680000D01*
X109270625Y-96480625D01*
X109598839Y-95989418D01*
X109714092Y-95410000D01*
X109598839Y-94830582D01*
X109270625Y-94339375D01*
X109252381Y-94327184D01*
X109297765Y-94318157D01*
X109507809Y-94177809D01*
X109648157Y-93967765D01*
X109697440Y-93720000D01*
X109697440Y-92020000D01*
X109648157Y-91772235D01*
X109507809Y-91562191D01*
X109297765Y-91421843D01*
X109050000Y-91372560D01*
X107350000Y-91372560D01*
X107102235Y-91421843D01*
X106892191Y-91562191D01*
X106751843Y-91772235D01*
X106702560Y-92020000D01*
X106702560Y-93720000D01*
X106751843Y-93967765D01*
X106892191Y-94177809D01*
X107102235Y-94318157D01*
X107147619Y-94327184D01*
X107129375Y-94339375D01*
X106801161Y-94830582D01*
X106685908Y-95410000D01*
X105110000Y-95410000D01*
X105110000Y-83058000D01*
X106689908Y-83058000D01*
X106805161Y-83637418D01*
X107133375Y-84128625D01*
X107151619Y-84140816D01*
X107106235Y-84149843D01*
X106896191Y-84290191D01*
X106755843Y-84500235D01*
X106706560Y-84748000D01*
X106706560Y-86448000D01*
X106755843Y-86695765D01*
X106896191Y-86905809D01*
X107106235Y-87046157D01*
X107354000Y-87095440D01*
X109054000Y-87095440D01*
X109301765Y-87046157D01*
X109511809Y-86905809D01*
X109652157Y-86695765D01*
X109701440Y-86448000D01*
X109701440Y-84748000D01*
X109652157Y-84500235D01*
X109511809Y-84290191D01*
X109301765Y-84149843D01*
X109256381Y-84140816D01*
X109274625Y-84128625D01*
X109602839Y-83637418D01*
X109718092Y-83058000D01*
X109602839Y-82478582D01*
X109274625Y-81987375D01*
X108783418Y-81659161D01*
X108350256Y-81573000D01*
X108057744Y-81573000D01*
X107624582Y-81659161D01*
X107133375Y-81987375D01*
X106805161Y-82478582D01*
X106689908Y-83058000D01*
X105110000Y-83058000D01*
X105110000Y-81039017D01*
X130615000Y-81039017D01*
X130615000Y-81410983D01*
X130757345Y-81754635D01*
X131020365Y-82017655D01*
X131364017Y-82160000D01*
X131401710Y-82160000D01*
X131287345Y-82274365D01*
X131145000Y-82618017D01*
X131145000Y-82989983D01*
X131287345Y-83333635D01*
X131550365Y-83596655D01*
X131894017Y-83739000D01*
X131904843Y-83739000D01*
X133756251Y-85590408D01*
X133800047Y-85655953D01*
X134059708Y-85829454D01*
X134288684Y-85875000D01*
X134288688Y-85875000D01*
X134366000Y-85890378D01*
X134443312Y-85875000D01*
X139162710Y-85875000D01*
X139170365Y-85882655D01*
X139514017Y-86025000D01*
X139885983Y-86025000D01*
X140229635Y-85882655D01*
X140492655Y-85619635D01*
X140635000Y-85275983D01*
X140635000Y-84904017D01*
X140492655Y-84560365D01*
X140229635Y-84297345D01*
X139885983Y-84155000D01*
X139514017Y-84155000D01*
X139170365Y-84297345D01*
X139162710Y-84305000D01*
X134691157Y-84305000D01*
X133015000Y-82628843D01*
X133015000Y-82618017D01*
X132872655Y-82274365D01*
X132609635Y-82011345D01*
X132606388Y-82010000D01*
X138637240Y-82010000D01*
X138939017Y-82135000D01*
X139310983Y-82135000D01*
X139654635Y-81992655D01*
X139917655Y-81729635D01*
X140060000Y-81385983D01*
X140060000Y-81014017D01*
X139917655Y-80670365D01*
X139654635Y-80407345D01*
X139310983Y-80265000D01*
X138939017Y-80265000D01*
X138595365Y-80407345D01*
X138562710Y-80440000D01*
X132087290Y-80440000D01*
X132079635Y-80432345D01*
X131735983Y-80290000D01*
X131364017Y-80290000D01*
X131020365Y-80432345D01*
X130757345Y-80695365D01*
X130615000Y-81039017D01*
X105110000Y-81039017D01*
X105110000Y-79332552D01*
X105399182Y-79699377D01*
X106014360Y-80096593D01*
X106725036Y-80273126D01*
X107454578Y-80209940D01*
X108124321Y-79913850D01*
X108662046Y-79416783D01*
X109009770Y-78772336D01*
X109130000Y-78050000D01*
X109129725Y-78014973D01*
X108998164Y-77294614D01*
X108640360Y-76655709D01*
X108198560Y-76260000D01*
X128668023Y-76260000D01*
X128422890Y-76423793D01*
G04 #@! TD*
M02*
